<?xml version="1.0" standalone="no"?>
<!DOCTYPE svg PUBLIC "-//W3C//DTD SVG 1.1//EN" "http://www.w3.org/Graphics/SVG/1.1/DTD/svg11.dtd" >
<!--
2013-9-30: Created.
-->
<svg>
<metadata>
Created by iconfont
</metadata>
<defs>

<font id="wsdfont" horiz-adv-x="1024" >
  <font-face
    font-family="wsdfont"
    font-weight="500"
    font-stretch="normal"
    units-per-em="1024"
    ascent="896"
    descent="-128"
  />
    <missing-glyph />
    
    <glyph glyph-name="feif" unicode="&#59599;" d="M879.168 374.24c-38.272 191.424-164.512 310.72-240.928 323.232-35.2 5.76-56.256-6.112-67.744-17.12-28.16-26.976-25.984-74.144-23.904-100.704a137.024 137.024 0 0 0-3.872 18.144l-1.312 19.296-0.128 2.24L540.8 768H483.2v-150.112h-0.448c-1.024-14.656-2.976-29.216-5.76-43.616l0.32 3.776c2.048 25.824 5.92 73.92-23.808 102.336-11.456 10.976-32.576 22.848-67.744 17.088-76.416-12.512-202.656-131.808-241.024-323.68-32.32-175.232-9.92-291.904 1.472-322.112l0.288-0.704c5.024-13.408 15.488-41.28 43.424-49.056 4.608-1.28 9.344-1.92 14.112-1.92 17.44 0 36.384 8.448 57.408 25.568a347.52 347.52 0 0 0 94.528 47.232c45.632 13.44 128.352 57.664 114.624 128.512-6.272 32.384-13.536 78.848-4.224 107.52 0.256 0.768 6.656 19.52 13.92 44.8 3.36 11.616 6.56 33.92-1.184 93.76l9.248 12.64c9.696 11.52 15.104 24.768 21.76 38.624 5.12-12.672 11.296-24.864 18.528-36.352l8.832-12.896c-3.2-28.992-2.56-66.56 6.336-96.192 7.456-24.736 13.44-43.104 13.664-43.872 9.472-29.184 2.24-75.648-4.064-108.032-13.728-70.848 68.992-115.04 114.624-128.512a347.2 347.2 0 0 0 94.496-47.232c21.024-17.12 40-25.568 57.44-25.568 4.768 0 9.504 0.64 14.08 1.92 27.968 7.808 38.432 35.648 43.456 49.056l0.288 0.704c11.392 30.208 33.824 146.88 1.376 322.56z m-465.504 16.448v-0.032c-30.976-25.92-48.256-45.984-48.192-102.72l-0.064-0.064c0.096-3.04-0.096-6.08-0.544-9.12-2.336-9.152-9.024-24.224-27.904-24.96-25.984 0.96-28.8 23.68-29.088 30.176-0.672 88.352 31.84 121.6 71.04 154.24 0.32 0.224 27.424 18.656 42.624-2.848 17.152-24.16-3.744-39.68-7.872-44.672z m267.136-136.896c-18.88 0.736-25.568 15.808-27.872 24.96a51.072 51.072 0 0 0-0.576 9.12l-0.064 0.064c0.064 56.704-17.184 76.8-48.16 102.72l-0.032 0.032c-4.128 4.992-25.024 20.48-7.904 44.704 15.232 21.472 42.304 3.04 42.624 2.816 39.232-32.64 71.744-65.888 71.04-154.24-0.256-6.528-3.072-29.216-29.056-30.176z"  horiz-adv-x="1024" />

    
    <glyph glyph-name="bingduf" unicode="&#59600;" d="M528 800c18.432 0 33.344-15.52 33.344-34.656v-2.624c0-19.2 14.08-35.008 32.16-38.72 13.984-2.912 27.776-6.752 41.312-11.52 17.44-6.112 37.152 0.288 46.4 16.864l1.248 2.24a32.64 32.64 0 0 0 45.504 12.672c15.968-9.568 21.44-30.784 12.224-47.36l-1.28-2.272c-9.216-16.576-4.704-37.568 9.12-50.24 10.752-9.824 20.896-20.352 30.368-31.552 12.16-14.4 32.32-19.072 48.256-9.472l2.208 1.312a32.64 32.64 0 0 0 45.536-12.672c9.216-16.576 3.744-37.76-12.16-47.36l-2.176-1.28c-15.936-9.6-22.08-30.144-16.192-48.32 4.544-13.92 8.256-28.288 11.072-43.008 3.584-18.784 18.784-33.376 37.216-33.376h2.496c18.432 0 33.344-15.52 33.344-34.656 0-19.168-14.912-34.688-33.312-34.688h-2.56c-18.4 0-33.632-14.624-37.248-33.408-2.784-14.56-6.464-28.928-11.04-42.976-5.888-18.144 0.288-38.656 16.224-48.256l2.176-1.28c15.904-9.6 21.376-30.816 12.16-47.36a32.64 32.64 0 0 0-45.536-12.704l-2.208 1.312c-15.936 9.6-36.096 4.896-48.256-9.472-9.472-11.2-19.616-21.76-30.368-31.584-13.824-12.64-18.336-33.6-9.12-50.208l1.28-2.24a35.424 35.424 0 0 0-12.192-47.392 32.64 32.64 0 0 0-45.536 12.672l-1.28 2.24c-9.184 16.608-28.928 23.008-46.4 16.864a321.28 321.28 0 0 0-41.312-11.52 40 40 0 0 1-32.128-38.72v-2.624c0-19.136-14.912-34.656-33.344-34.656-18.4 0-33.344 15.52-33.344 34.688v2.56c0 19.2-14.016 35.04-32.128 38.784-14.016 2.88-27.84 6.72-41.376 11.488-17.44 6.112-37.152-0.288-46.368-16.864l-1.248-2.24a32.64 32.64 0 0 0-45.536-12.672 35.424 35.424 0 0 0-12.16 47.36l1.248 2.272c9.216 16.576 4.704 37.568-9.12 50.208a342.496 342.496 0 0 0-30.368 31.584c-12.16 14.368-32.32 19.04-48.288 9.472l-2.176-1.312a32.64 32.64 0 0 0-45.536 12.672 35.424 35.424 0 0 0 12.16 47.36l2.208 1.312c15.936 9.6 22.08 30.112 16.192 48.256-4.576 14.08-8.288 28.416-11.072 43.008-3.616 18.784-18.816 33.376-37.248 33.376h-2.528C142.912 349.312 128 364.832 128 384c0 19.136 14.912 34.656 33.344 34.656h2.496c18.432 0 33.664 14.624 37.248 33.408 2.784 14.592 6.496 28.992 11.072 43.072 5.888 18.112-0.288 38.624-16.224 48.192l-2.144 1.312a35.424 35.424 0 0 0-12.192 47.36 32.64 32.64 0 0 0 45.536 12.672l2.208-1.312c15.936-9.6 36.096-4.896 48.256 9.472 9.472 11.2 19.616 21.76 30.368 31.584 13.824 12.64 18.336 33.6 9.12 50.208l-1.28 2.24a35.424 35.424 0 0 0 12.192 47.392 32.64 32.64 0 0 0 45.536-12.672l1.28-2.24c9.216-16.608 28.928-23.008 46.4-16.864 13.504 4.768 27.328 8.64 41.344 11.52a39.968 39.968 0 0 1 32.096 38.72v2.592c0 19.168 14.944 34.688 33.344 34.688z m113.792-505.632a65.376 65.376 0 0 1-47.136 20.288c-17.664 0-34.624-7.296-47.136-20.288-12.48-13.024-19.52-30.656-19.52-49.024 0-18.4 7.04-36.032 19.52-49.024 12.48-13.024 29.44-20.32 47.136-20.32s34.656 7.296 47.168 20.32c12.48 12.992 19.52 30.624 19.52 49.024 0 18.368-7.04 36-19.52 49.024z m-190.208-59.2a32.704 32.704 0 0 1-23.584 10.176c-8.832 0-17.312-3.68-23.584-10.176a35.392 35.392 0 0 1-9.76-24.512c0-9.184 3.52-18.016 9.76-24.512 6.272-6.496 14.72-10.144 23.584-10.144 8.832 0 17.312 3.648 23.584 10.144 6.24 6.496 9.76 15.328 9.76 24.512 0 9.216-3.52 18.016-9.76 24.512z m47.136 257.024a98.08 98.08 0 0 1-70.72 30.464c-26.528 0-51.968-10.944-70.72-30.464a106.144 106.144 0 0 1-29.28-73.536c0-27.584 10.56-54.016 29.28-73.536 18.752-19.52 44.192-30.464 70.72-30.464s51.968 10.976 70.72 30.464c18.752 19.52 29.28 45.952 29.28 73.536 0 27.584-10.56 54.048-29.28 73.536z m209.76-24.512a65.408 65.408 0 0 1-47.136 20.32c-17.696 0-34.656-7.296-47.168-20.32-12.48-12.992-19.52-30.624-19.52-49.024 0-18.368 7.04-36 19.52-49.024 12.512-12.992 29.472-20.288 47.168-20.288 17.664 0 34.624 7.296 47.136 20.288 12.48 13.024 19.52 30.656 19.52 49.024 0 18.4-7.04 36.032-19.52 49.024z m-90.24 114.176a32.704 32.704 0 0 1-23.584 10.144c-8.832 0-17.28-3.648-23.552-10.144a35.392 35.392 0 0 1-9.76-24.512c0-9.216 3.52-18.016 9.76-24.512 6.24-6.528 14.72-10.176 23.552-10.176 8.864 0 17.344 3.648 23.584 10.176 6.24 6.496 9.76 15.296 9.76 24.512 0 9.184-3.52 18.016-9.76 24.512z"  horiz-adv-x="1024" />

    
    <glyph glyph-name="wendangwanchengtongguoduif" unicode="&#59589;" d="M192 768h608v-338.624A256 256 0 0 1 504.16 32H192V768z m128-192h352V640H320v-64z m0-128h160v64h-160v-64zM896 192a192 192 0 1 0-384 0 192 192 0 0 0 384 0z m-304 16l96-96 144 160-32 32-112-128-64 64-32-32z"  horiz-adv-x="1024" />

    
    <glyph glyph-name="zaiyuanbingchuangtongjif" unicode="&#59590;" d="M864 392.16A224 224 0 0 0 512 576h-64v-256H192V704H128v-704h64v160h608v-160h64V392.16zM416 448a96 96 0 1 0-192 0 96 96 0 0 0 192 0zM560 608.96A193.024 193.024 0 0 0 725.408 800v-218.592H944a193.024 193.024 0 0 0-384 27.584zM944 636.544A193.088 193.088 0 0 1 780.544 800v-163.456H944z"  horiz-adv-x="1024" />

    
    <glyph glyph-name="qianrenyaof" unicode="&#59591;" d="M736 592a208 208 0 1 0-416 0 208 208 0 0 0 416 0z m-160 64l41.376 56L576 752l-48-73.376L480 752l-41.376-40L480 656h-64V608h80v-48H416V512h80v-64h64v64H640v48h-80V608H640V656h-64zM690.272 280.64c10.112 0 18.304-7.744 18.304-17.28v-51.68h36.576v51.712c0 28.544-24.576 51.68-54.88 51.68v-34.464zM544 260.096C544 328.032 600.768 384 672 384s128-56 128-123.904v-200.192C800-8.032 743.232-64 672-64s-128 56-128 123.904v200.192z m128 89.44c-49.952 0-91.424-39.52-91.424-89.44V160h182.848v100.096c0 49.92-41.472 89.44-91.424 89.44zM128 160a160 160 0 0 0 160 160h192v-320H288a160 160 0 0 0-160 160zM928 160c0 80-64 128-64 128v-256s64 48 64 128z"  horiz-adv-x="1024" />

    
    <glyph glyph-name="zaiyuanbingchuangshijianf" unicode="&#59592;" d="M864 392.16A224 224 0 0 0 512 576h-64v-256H192V704H128v-704h64v160h608v-160h64V392.16zM416 448a96 96 0 1 0-192 0 96 96 0 0 0 192 0zM760 800a200 200 0 1 0 0-400 200 200 0 0 0 0 400z m16.64-200V718.336h-49.984v-148.352l113.248-48.704 23.52 44.128-86.752 34.592z"  horiz-adv-x="1024" />

    
    <glyph glyph-name="zhuyuanfeiyongqianf" unicode="&#59593;" d="M853.536 503.68L512 779.232 170.464 503.68A32 32 0 0 1 192 448h64v-448h512v160h128v64h-128v224h64a32 32 0 0 1 21.536 55.68zM768 224v-64h-95.264L672 64l-160 128 160 128 0.736-96H768z m-208 288h64v-48H544V416h80v-48H544v-64h-64v64h-80V416H480v48h-80V512h64l-41.376 56L464 608l48-73.376L560 608l41.376-40L560 512z"  horiz-adv-x="1024" />

    
    <glyph glyph-name="renqianf" unicode="&#59594;" d="M512 768a192 192 0 1 1 0-384 192 192 0 0 1 0 384zM288 320a160 160 0 0 1 0-320h209.184A288.128 288.128 0 0 0 448 161.472c0 58.528 17.376 112.96 47.232 158.528H288zM736-64a224 224 0 1 1 0 448 224 224 0 0 1 0-448z m96.256 353.216l-44.576-60.288h68.928v-51.712h-86.144v-51.68h86.144v-51.68h-86.144v-68.928h-68.928v68.928h-86.144v51.68h86.144V177.28h-86.144v51.68h68.928l-44.576 60.288 44.576 43.104L736 253.28l51.68 79.04 44.576-43.104z"  horiz-adv-x="1024" />

    
    <glyph glyph-name="yaoqianf1" unicode="&#59595;" d="M544 576a32 32 0 0 1-32 32V672a96 96 0 0 0 96-96v-96h-64v96zM480 800c-124.64 0-224-103.968-224-230.08v-371.84C256 72 355.36-32 480-32c23.168 0 45.472 3.584 66.432 10.24A240 240 0 0 0 704 383.456V569.92C704 696.064 604.64 800 480 800z m-160-230.08C320 662.56 392.576 736 480 736s160-73.408 160-166.08V416H320v153.92zM720-64a208 208 0 1 1 0 416 208 208 0 0 1 0-416z m89.376 328L768 208h64V160h-80v-48H832V64h-80v-64h-64v64H608v48h80V160H608v48h64l-41.376 56L672 304l48-73.376L768 304l41.376-40z"  horiz-adv-x="1024" />

    
    <glyph glyph-name="qianyiliaoshouru7f" unicode="&#59596;" d="M302.528 331.04c3.392 0.96 21.44 6.016 41.376 6.016h241.6c42.528 0 78.08-30.816 87.04-72 83.264 54.528 138.656 150.24 138.656 259.552C811.2 694.4 677.92 832 513.536 832s-297.632-137.6-297.632-307.36c0-75.744 26.56-144.96 70.528-198.56l16.096 4.928zM480 704h64v-96h96v-64h-96v-96h-64v96h-96V608h96V704zM912.736 259.264l-40.224 6.72a94.976 94.976 0 0 1-64.352-11.904l-207.872-121.216a4.352 4.352 0 0 0-2.464-0.64 4.48 4.48 0 0 0-2.432 0.736l-62.976 37.568h53.056c25.184 0 45.6 21.088 45.6 47.072v27.328c0 26.016-20.416 47.072-45.6 47.072h-241.568a114.08 114.08 0 0 1-13.984-1.056c-8.64-1.344-15.264-3.136-15.264-3.136l-215.104-65.28a5.312 5.312 0 0 1-3.392-6.368l46.08-161.92c0.576-2.176 2.56-3.616 4.768-3.616 0.448 0 0.928 0.128 1.376 0.224l156.128 47.328a5.632 5.632 0 0 0 1.408 0.256 4.48 4.48 0 0 0 2.432-0.736l261.28-155.808c7.104-4.448 13.76-5.888 19.712-5.888 12.928 0 21.888 7.232 21.888 7.232l310.816 283.904c11.2 10.112 5.728 29.472-9.312 32.128z"  horiz-adv-x="1024" />

    
    <glyph glyph-name="qiantongji7f" unicode="&#59597;" d="M480 832C303.296 832 160 756.8 160 664V608c0-92.8 143.264-168 320-168 176.768 0 320 75.2 320 168V664C800 756.8 656.768 832 480 832z m-85.184-48.704c10.816 6.656 25.952 4.608 33.792-4.544L480 718.72l51.392 60c7.84 9.152 22.976 11.2 33.792 4.576 10.816-6.656 13.248-19.424 5.44-28.576l-43.2-50.4h65.504c13.376 0 24.224-9.152 24.224-20.48 0-11.264-10.848-20.448-24.224-20.448h-88.736v-55.584h88.736c13.376 0 24.224-9.152 24.224-20.448 0-11.296-10.848-20.448-24.224-20.448h-88.736v-72.896c0-11.296-10.816-20.448-24.192-20.448s-24.192 9.152-24.192 20.48v72.864H367.04c-13.376 0-24.224 9.152-24.224 20.48 0 11.264 10.848 20.416 24.224 20.416h88.736V663.424H367.04c-13.376 0-24.224 9.184-24.224 20.48 0 11.296 10.848 20.448 24.224 20.448h65.536l-43.2 50.4c-7.84 9.152-5.44 21.92 5.408 28.544zM160 534.496C160 441.696 303.264 384 480 384s319.936 57.664 319.968 150.4v-94.4c0-19.776-6.496-38.72-18.432-56.352a255.68 255.68 0 0 1-221.504-106.368c-25.6-3.456-52.384-5.28-80-5.28C303.264 272 160 347.2 160 440v94.496zM588.16-54.176a255.936 255.936 0 0 0-63.808 103.424c-14.496-0.832-29.28-1.248-44.32-1.248C303.264 48 160 105.728 160 198.496v-94.496C160 11.2 303.296-64 480-64c37.952 0 74.368 3.456 108.16 9.824zM512 128c0 31.456 5.664 61.6 16.064 89.472-15.68-0.96-31.712-1.472-48.032-1.472C303.264 216 160 273.696 160 366.496V272c0-92.8 143.264-168 320-168 11.168 0 22.176 0.32 33.024 0.896A259.104 259.104 0 0 0 512 128zM576 128.96A193.024 193.024 0 0 0 741.408 320v-218.592H960a193.024 193.024 0 0 0-384 27.552zM960 156.544A193.12 193.12 0 0 1 796.544 320v-163.456H960z"  horiz-adv-x="1024" />

    
    <glyph glyph-name="xinfuwuqianyiliaof" unicode="&#59598;" d="M858.784 690.56C762.88 800.16 606.848 784.352 512 699.776 417.152 784.32 261.088 800.16 165.216 690.56c-53.76-61.44-73.824-127.936-68.352-195.04 5.408-65.92 35.2-129.92 76.288-188.736 81.952-117.376 214.816-222.656 320.512-294.336L512 0l18.336 12.448c6.432 4.352 12.992 8.864 19.616 13.44a272 272 0 0 0 363.136 401.28c7.264 22.496 12.16 45.312 14.048 68.352 5.472 67.104-14.592 133.6-68.352 195.04zM416 608v-96h96v-64h-96v-96h-64v96H256v64h96V608h64zM960 208a208 208 0 1 0-416 0 208 208 0 0 0 416 0z m-160 64l41.376 56L800 368l-48-73.376L704 368l-41.376-40L704 272h-64V224h80v-48H640V128h80v-64h64v64H864v48h-80V224H864v48h-64z"  horiz-adv-x="1024" />

    
    <glyph glyph-name="renyisheng1f" unicode="&#59587;" d="M320 672a96 96 0 0 0 96 96h192a96 96 0 0 0 96-96v-256c0-24.64-4.64-48.192-13.088-69.824 99.2-23.04 173.088-112 173.088-218.176v-128H160v128a224.096 224.096 0 0 0 173.088 218.176A191.52 191.52 0 0 0 320 416V672z m294.816-332.256c15.808 21.312 25.184 47.68 25.184 76.256v96h-256v-96c0-28.576 9.376-54.944 25.184-76.256l5.76-7.2A127.712 127.712 0 0 1 512 288c38.816 0 73.6 17.28 97.056 44.544l5.76 7.2zM480 608v-32h64V608h64V672h-64V704h-64v-32h-64v-64h64z m256-480v64h-96v-64h96z m-224-32l64 160-6.752-3.392a128 128 0 0 0-114.496 0L448 256l64-160z"  horiz-adv-x="1024" />

    
    <glyph glyph-name="renyisheng2f" unicode="&#59588;" d="M689.12 588.96c8.64 1.504 16.736 0.192 19.424-9.408 9.056-32.32-19.52-77.312-46.08-74.656-23.488-59.936-53.696-101.44-86.464-124.608v-23.456c29.856-3.136 59.84-8.416 89.344-16.192-0.96-7.328-2.144-14.912-3.424-22.304-1.728-10.208-3.552-19.84-5.12-27.68h-15.968a88 88 0 0 1-78.4-48.064l-47.52-93.312c-15.68-30.752-10.56-67.072 10.784-92.192 8.576-10.112 23.84-6.848 31.104 4.256 7.264 11.072 2.944 26.144-1.216 38.72a35.648 35.648 0 0 0 2.112 27.424l47.488 93.312a40 40 0 0 0 35.648 21.856h29.856l16-7.84c14.624-7.2 23.424-22.528 22.24-38.816l-7.488-102.912c-0.896-12.544-7.68-23.456-17.504-30.144-10.976-7.456-22.592-17.696-22.592-30.944 0-13.248 10.912-24.32 23.68-20.768a88.16 88.16 0 0 1 64.32 78.4l7.456 102.912a88 88 0 0 1-48.96 85.376l-4.224 2.048a1018.144 1018.144 0 0 1 8.16 46.24c43.584-15.744 85.44-37.44 123.68-66.016C866.592 197.408 890.976 47.648 896-64H128c5.024 111.744 29.216 261.216 60.416 324.16 25.728 26.016 66.048 49.152 115.424 66.624-0.576-3.36-1.088-6.72-1.6-10.144-6.4-44.096-7.136-94.112 5.632-142.304A64 64 0 1 1 352.928 192c-9.184 38.272-8.8 79.168-3.2 117.76 1.632 11.2 3.68 22.048 6.016 32.416A634.72 634.72 0 0 0 448 357.504v22.944c-32.704 23.168-62.816 64.64-86.272 124.48-26.24-2.688-55.104 42.304-46.048 74.624 2.656 9.504 10.656 11.008 19.2 9.408-7.68 33.984-11.744 76.032-4.384 110.144 31.456 146.048 290.976 171.296 305.248 77.824 70.112-23.392 73.76-99.52 53.376-187.968z"  horiz-adv-x="1024" />

    
    <glyph glyph-name="renshuyonghutongjif" unicode="&#59586;" d="M512 768a192 192 0 1 1 0-384 192 192 0 0 1 0 384zM288 320a160 160 0 0 1 0-320h209.184A288.128 288.128 0 0 0 448 161.472c0 58.528 17.376 112.96 47.232 158.528H288zM512 161.152A225.184 225.184 0 0 0 704.96 384v-255.04H960a225.184 225.184 0 0 0-448 32.192zM960 193.28A225.28 225.28 0 0 1 769.28 384v-190.72H960z"  horiz-adv-x="1024" />

    
    <glyph glyph-name="baifenbif" unicode="&#59578;" d="M352 544a32 32 0 1 0 64 0 32 32 0 0 0-64 0zM608 224a32 32 0 1 0 64 0 32 32 0 0 0-64 0zM512-32c229.76 0 416 186.24 416 416S741.76 800 512 800 96 613.76 96 384s186.24-416 416-416z m212.8 664.32a32 32 0 0 0 3.52-45.12l-384-448a32 32 0 0 0-48.64 41.6l384 448a32 32 0 0 0 45.12 3.52zM384 640a96 96 0 1 0 0-192 96 96 0 0 0 0 192z m256-320a96 96 0 1 0 0-192 96 96 0 0 0 0 192z"  horiz-adv-x="1024" />

    
    <glyph glyph-name="laonianrenf" unicode="&#59579;" d="M530.976 832c56.416 0 102.112-50.592 102.112-112.992 0-62.4-45.696-113.024-102.08-113.024-56.448 0-102.144 50.624-102.144 113.024S474.56 832 530.976 832z m264.864-500.32s-7.136-26.56-33.216-28.384c-26.304-1.792-31.424 19.52-31.424 23.168 12.48 177.44-70.688 245.952-78.72 243.232-15.808-18.816-8.672-172-8.672-172s82.048-103.008 34.976-458.784c-24.512-39.488-90.08-55.168-106.56 10.656 47.264 299.52-40.128 357.376-40.128 357.376s-104.768-92.576-41.92-353.76c-33.216-86.24-102.112-39.04-108.352-8.832-60.192 235.52 29.664 456.96 29.664 456.96s10.464 158.624-3.584 173.824c-43.456-11.104-95.872-65.6-97.856-159.04 30.752-26.56 27.84-80.576 27.84-80.576s0.448-392.544 0-414.336c-0.416-21.792-34.976-18.848-34.976 0V335.04s4.224 28.16-8.256 46.72a29.984 29.984 0 0 0-17.824-5.664c-16.064 0-24.096 11.584-27.424 19.968-29.216-7.04-20.512-40.384-28.544-52.16-9.152-13.408-28.096-5.216-28.768 3.616-0.64 7.936 0.448 68.512 54.4 80.544 0.672 70.336 22.72 192.416 167.2 237.792 42.816-113.44 185.504-120 241.472 3.648 182.592-106.4 140.672-337.856 140.672-337.856z"  horiz-adv-x="1024" />

    
    <glyph glyph-name="dazhenf" unicode="&#59580;" d="M743.008 775.008L696.96 728.96l12-12-72.992-72.992 44.992-46.016L754.016 672 800 625.984l-74.016-72.96 46.016-45.024 72.992 72.992 12-12L903.04 615.04l-160.032 159.968z m-176-112L520.96 616.96l21.024-20.992L224 276.992l-11.008-10.976 2.016-15.04 10.976-101.984 1.024-10.976 2.976-2.016L126.016 32h91.008l65.024 64.992 96.96-9.984 15.04-2.016 10.976 11.008 319.008 318.016 20.992-21.024 46.016 46.016-224.032 224z"  horiz-adv-x="1024" />

    
    <glyph glyph-name="yaoqianf" unicode="&#59581;" d="M320 832a64 64 0 0 1-64-64v-96h512V768a64 64 0 0 1-64 64H320zM256 608h512l77.76-129.6a128 128 0 0 0 18.24-65.856V0a64 64 0 0 0-64-64H224a64 64 0 0 0-64 64V412.544a128 128 0 0 0 18.24 65.856L256 608z m320-128l-64-98.752L448 480l-64-32 50.752-80H352v-64h128v-64h-128v-64h128v-128h64v128h128v64h-128v64h128v64h-82.752L640 448l-64 32z"  horiz-adv-x="1024" />

    
    <glyph glyph-name="shoushuzhanbif" unicode="&#59582;" d="M391.552 127.04l91.68 95.232-73.792 20.32-144.512-149.76a15.168 15.168 0 0 0-21.92 0 16.384 16.384 0 0 0 0 22.656l131.808 136.64-56.032 15.424L64 0l85.376 0.096c121.952 0.16 149.696 29.44 216.064 99.584 8.064 8.512 16.672 17.6 26.112 27.36zM343.264 0.16H576l-32 32h-169.76l-30.976-32zM329.344 330.464a24.128 24.128 0 0 0 6.016 10.784L716.928 735.68c13.664 14.08 30.08 24.032 47.936 28.96a95.936 95.936 0 0 0 54.624-1.216 107.776 107.776 0 0 0 45.44-27.84c13.408-13.856 22.88-31.04 27.616-49.568a108.48 108.48 0 0 0-27.584-103.072l-314.976-325.696a22.784 22.784 0 0 0-23.648-5.888l-180.544 49.792a24.064 24.064 0 0 0-16.448 29.344zM608 160.224c0 77.44 54.944 142.08 128 156.992V128h189.216A160.288 160.288 0 0 0 608 160.224zM925.312 192H800c0 32 0 112 0.48 125.216A160.416 160.416 0 0 0 925.312 192z"  horiz-adv-x="1024" />

    
    <glyph glyph-name="tounaojingshenbingf" unicode="&#59583;" d="M483.456 800c37.344 0 70.496-4.416 103.68-13.248 70.528-22.112 144.64-64.576 181.984-135.264 33.184-53.024 37.856-129.856 21.28-178.432-4.16-4.448-4.16-8.832 0-13.28 4.128-8.832 12.416-17.664 20.736-26.496 16.576-26.56 41.472-61.856 49.76-88.384 4.16-8.832 4.16-25.024 0-33.856-8.288-8.832-49.76-28-49.76-28-9.92-3.52-11.936-74.208-12.352-107.36l-0.096-16.32c0-44.224-29.056-70.72-74.688-70.72-12.448 0-45.6 8.832-49.792 8.832-23.552 0-32.224-7.936-33.056-31.296l-0.096-4.064c0-8.832-8.32-83.328-24.896-92.16-11.552-4.096-58.752-0.576-128.544-0.064l-16.512 0.064h-160.64c-8.896 0.096-26.112 1.44-26.112 25.952 0 35.52 14.464 76.096 14.464 129.536s-39.36 82.88-60.096 113.824C193.088 296.736 139.2 428.832 168.192 574.72c16.608 79.488 58.08 136.928 124.48 176.704C358.944 791.168 433.6 800 483.36 800h0.064z m132.992-195.008a24.768 24.768 0 0 1-31.712 10.88l-2.624-1.376-96.32-57.472-96.288 57.472a24.64 24.64 0 0 1-33.472-8.256 26.56 26.56 0 0 1 5.888-35.104l2.432-1.664 71.136-42.464-71.136-42.464-2.432-1.664a26.56 26.56 0 0 1-8.192-30.912l1.408-2.944 1.632-2.56c3.36-4.64 8.128-8 13.536-9.536 5.44-1.504 11.168-1.12 16.32 1.12l2.88 1.44 96.288 57.504 96.288-57.504a24.64 24.64 0 0 1 33.632 8.192 26.56 26.56 0 0 1-6.016 35.2l-2.432 1.632-71.168 42.496 71.168 42.464 2.432 1.664a26.592 26.592 0 0 1 6.752 33.856z"  horiz-adv-x="1024" />

    
    <glyph glyph-name="yaozengfushangf" unicode="&#59584;" d="M534.624 694.624a32 32 0 0 1-45.248 0l-96-96a32 32 0 0 1 45.248-45.248L480 594.752V448a32 32 0 1 1 64 0V594.752l41.376-41.376a32 32 0 0 1 45.248 45.248l-96 96zM800 224a288 288 0 1 0-576 0V544a288 288 0 1 0 576 0v-320z m-64 160v160a224 224 0 1 1-448 0v-160h448z m-64-96a32 32 0 0 1-32-32c0-38.304-3.904-65.824-11.84-86.496-7.616-19.712-19.328-34.496-37.92-46.88a32 32 0 1 1 35.52-53.248c29.408 19.616 49.696 44.832 62.08 77.12 12.064 31.328 16.16 67.84 16.16 109.504a32 32 0 0 1-32 32z"  horiz-adv-x="1024" />

    
    <glyph glyph-name="qianzengchangf" unicode="&#59585;" d="M543.968 656.512V669.76L544 731.04A6.144 6.144 0 0 0 548.928 736h50.24c0.064 0 0.128 0 0.224 0.064h0.352l0.16 0.032h0.16l0.16 0.064h0.128l0.16 0.032 0.32 0.064 0.128 0.032 0.256 0.064 0.16 0.064c0.096 0 0.192 0.032 0.256 0.096l0.192 0.064 0.224 0.096 0.192 0.096h0.064l0.032 0.032 0.128 0.064 0.224 0.096 0.16 0.096 0.128 0.064a0.48 0.48 0 0 0 0.096 0.064l0.16 0.096 0.256 0.128 0.128 0.096 0.064 0.064h0.064c0 0.064 0.064 0.096 0.096 0.096l0.16 0.128c0.064 0 0.096 0.064 0.16 0.128l0.096 0.064 0.128 0.096 0.192 0.192 0.096 0.064 0.096 0.096 0.16 0.16 0.32 0.32 0.32 0.384 0.16 0.16 0.064 0.096 0.096 0.096a1.312 1.312 0 0 1 0.16 0.224l0.096 0.16 0.192 0.256 0.096 0.128 0.064 0.16 0.096 0.128 0.064 0.128 0.16 0.288 0.064 0.128 0.064 0.096a0.736 0.736 0 0 1 0.064 0.192s0.032 0.128 0.096 0.16a0.768 0.768 0 0 1 0.064 0.192v0.064l0.064 0.096a1.6 1.6 0 0 1 0.064 0.128l0.064 0.192 0.096 0.256 0.064 0.192 0.032 0.192 0.032 0.064 0.064 0.192 0.064 0.288 0.032 0.16 0.064 0.32 0.032 0.16 0.064 0.32V744.64v0.096l0.032 0.32v0.096 0.064 0.064A0.64 0.64 0 0 0 608 745.376a7.424 7.424 0 0 1 0 1.12v0.192 0.256l-0.032 0.128v0.16 0.064h-0.032v0.128l-0.032 0.16v0.16l-0.032 0.064a0.64 0.64 0 0 0 0 0.096l-0.096 0.32-0.032 0.16-0.064 0.32-0.064 0.16-0.064 0.256-0.064 0.192-0.096 0.256-0.096 0.224-0.064 0.096a0.512 0.512 0 0 0-0.032 0.128l-0.096 0.224s-0.032 0.128-0.096 0.16l-0.064 0.128-0.064 0.16-0.096 0.128-0.128 0.288-0.096 0.128-0.128 0.224v0.064l-0.128 0.128-0.096 0.192-0.064 0.096h-0.032l-0.032 0.064-0.064 0.064-0.064 0.096-0.096 0.16a1.44 1.44 0 0 1-0.16 0.192l-0.128 0.16a2.048 2.048 0 0 1-0.32 0.32l-86.432 107.84-0.192 0.256A8.96 8.96 0 0 1 512 864a8.96 8.96 0 0 1-6.592-2.912l-0.192-0.224-86.496-107.84a10.368 10.368 0 0 1-2.72-7.168v-0.096c0-5.504 4.16-9.984 9.28-9.984H480v-82.72a16 16 0 0 1 12.864-13.056h37.248a16.224 16.224 0 0 1 13.856 16.512zM223.968-15.36v-0.128c0-8.576-6.08-15.648-13.856-16.512H172.864A16 16 0 0 0 160-18.944V575.776H105.28c-5.12 0-9.28 4.48-9.28 9.984v0.096c0 2.56 0.896 5.184 2.72 7.168l86.496 107.84 0.224 0.224A8.96 8.96 0 0 0 192 704a8.96 8.96 0 0 0 6.56-2.912l0.224-0.224 86.432-107.84a2.176 2.176 0 0 0 0.32-0.32l0.128-0.192a1.152 1.152 0 0 0 0.16-0.192l0.032-0.064 0.064-0.096 0.064-0.096 0.128-0.128 0.064-0.096 0.096-0.192 0.096-0.128 0.032-0.064a1.824 1.824 0 0 0 0.128-0.224 0.704 0.704 0 0 0 0.096-0.128l0.128-0.288a0.704 0.704 0 0 0 0.096-0.128l0.128-0.288a0.672 0.672 0 0 0 0.096-0.16l0.096-0.224 0.032-0.128 0.064-0.096a0.896 0.896 0 0 0 0.096-0.224l0.064-0.256 0.096-0.192 0.064-0.256 0.064-0.192 0.064-0.288 0.032-0.16 0.096-0.32v-0.32l0.032-0.064v-0.096l0.032-0.096v-0.256l0.032-0.128v-0.256L288 586.464a7.328 7.328 0 0 0 0-1.024v-0.32l-0.032-0.096v-0.32l-0.032-0.096v-0.096l-0.064-0.32v-0.16l-0.096-0.32-0.032-0.16-0.064-0.32-0.064-0.16v-0.064l-0.064-0.192-0.096-0.192-0.064-0.256-0.096-0.192v-0.128l-0.064-0.096v-0.064l-0.096-0.192c-0.064-0.032-0.096-0.16-0.096-0.16a0.864 0.864 0 0 0-0.064-0.192l-0.064-0.096a0.704 0.704 0 0 1-0.064-0.128l-0.16-0.288-0.032-0.064-0.032-0.064-0.096-0.128a1.024 1.024 0 0 1-0.064-0.16l-0.096-0.128-0.192-0.256-0.096-0.16-0.16-0.224a0.64 0.64 0 0 0-0.096-0.096l-0.064-0.096-0.16-0.16-0.096-0.16-0.224-0.224-0.32-0.32-0.16-0.16-0.032-0.032-0.064-0.064-0.096-0.064-0.064-0.064H284.48l-0.096-0.128-0.128-0.096-0.096-0.064a0.96 0.96 0 0 0-0.16-0.128l-0.128-0.096-0.128-0.096-0.128-0.096-0.16-0.096-0.224-0.128a0.64 0.64 0 0 0-0.16-0.096 0.736 0.736 0 0 1-0.16-0.096l-0.064-0.032-0.16-0.096-0.224-0.096-0.064-0.032h-0.064l-0.096-0.064-0.192-0.096-0.224-0.096-0.192-0.064a0.768 0.768 0 0 0-0.256-0.096l-0.16-0.064-0.256-0.064h-0.128l-0.32-0.096h-0.16l-0.064-0.032h-0.064l-0.16-0.032h-0.128l-0.032-0.032H279.616l-0.224-0.032-0.224-0.032L278.72 576H228.928a6.144 6.144 0 0 1-4.928-4.96V-2.24l-0.032-13.152zM863.968-15.36v-0.128c0-8.576-6.08-15.648-13.856-16.512h-37.216a16 16 0 0 0-12.896 13.056V575.776h-54.72c-5.12 0-9.28 4.48-9.28 9.984v0.096c0 2.56 0.896 5.184 2.72 7.168l86.496 107.84 0.192 0.224A8.96 8.96 0 0 0 832 704a8.96 8.96 0 0 0 6.592-2.912l0.192-0.224 86.432-107.84a2.048 2.048 0 0 0 0.32-0.32l0.064-0.096 0.064-0.096a1.44 1.44 0 0 0 0.16-0.192l0.096-0.16 0.064-0.096 0.064-0.064 0.064-0.064 0.096-0.16a0.64 0.64 0 0 0 0.064-0.128l0.096-0.128 0.16-0.288 0.064-0.064 0.032-0.064 0.128-0.288a0.704 0.704 0 0 0 0.096-0.128l0.128-0.288a0.672 0.672 0 0 0 0.096-0.16l0.096-0.224 0.032-0.096 0.064-0.128 0.032-0.096 0.064-0.128 0.096-0.256 0.064-0.192a0.64 0.64 0 0 0 0.064-0.16v-0.096l0.064-0.192 0.064-0.288 0.032-0.16 0.064-0.32v-0.096l0.032-0.064v-0.16l0.032-0.064v-0.096l0.032-0.192v-0.16l0.032-0.128v-0.256L928 586.56v-0.096a7.424 7.424 0 0 0 0-1.088v-0.352c0-0.096 0-0.224-0.064-0.32v-0.192l-0.064-0.32v-0.16l-0.096-0.32-0.032-0.16-0.064-0.32-0.064-0.16-0.064-0.256-0.064-0.192c-0.032-0.064-0.096-0.16-0.096-0.256l-0.096-0.192v-0.128l-0.064-0.096-0.064-0.128a0.512 0.512 0 0 0-0.032-0.128l-0.064-0.064-0.032-0.096v-0.096l-0.096-0.096v-0.096l-0.064-0.064-0.032-0.064-0.16-0.288-0.064-0.128c-0.064-0.096-0.128-0.16-0.16-0.288l-0.096-0.128-0.192-0.256-0.096-0.16a1.312 1.312 0 0 0-0.16-0.224h-0.032l-0.064-0.096a0.608 0.608 0 0 1-0.064-0.096l-0.16-0.16-0.32-0.384-0.32-0.32-0.16-0.16a0.608 0.608 0 0 1-0.096-0.096l-0.096-0.064-0.192-0.192-0.128-0.096-0.096-0.064-0.16-0.128-0.16-0.096-0.224-0.192-0.16-0.096-0.224-0.128-0.064-0.064-0.096-0.032-0.16-0.096-0.064-0.032a0.608 0.608 0 0 0-0.16-0.096l-0.224-0.096-0.064-0.032h-0.064l-0.032-0.064h-0.064l-0.192-0.096-0.224-0.096-0.192-0.064a0.48 0.48 0 0 0-0.096-0.064l-0.16-0.032-0.16-0.064-0.256-0.064h-0.128l-0.32-0.096h-0.16l-0.288-0.064h-0.096l-0.064-0.032a0.672 0.672 0 0 1-0.16 0h-0.128a0.32 0.32 0 0 0-0.096-0.032h-0.128l-0.224-0.032-0.448-0.032h-49.792a6.144 6.144 0 0 1-4.928-4.96V-2.24l-0.032-13.152zM512 136c-123.712 0-224 41.216-224 107.52v-67.52c0-66.272 100.288-120 224-120s224 53.728 224 120v67.456c-0.064-66.24-100.288-107.456-224-107.456zM512 16c-123.712 0-224 41.216-224 107.52v-67.52C288-10.24 388.32-64 512-64c123.712 0 224 53.728 224 120v67.424c-0.064-66.24-100.288-107.424-224-107.424zM512 256c-123.712 0-224 41.216-224 107.52v-67.52c0-66.272 100.288-120 224-120s224 53.76 224 120v67.456C735.904 297.216 635.68 256 512 256zM512 576c-123.712 0-224-53.728-224-120V416c0-66.272 100.288-120 224-120s224 53.728 224 120v40C736 522.24 635.744 576 512 576z m-59.616-34.784c7.552 4.736 18.144 3.264 23.648-3.264L512 495.104l35.968 42.88c5.504 6.496 16.096 8 23.68 3.232 7.552-4.736 9.28-13.856 3.776-20.384l-30.24-36.032h45.888c9.344 0 16.928-6.528 16.928-14.592s-7.584-14.624-16.96-14.624h-62.08v-39.68h62.08c9.376 0 16.96-6.56 16.96-14.624s-7.584-14.592-16.96-14.592h-62.08v-52.096c0-8.064-7.616-14.592-16.96-14.592-9.344 0-16.96 6.528-16.96 14.592v52.096h-62.08c-9.376 0-16.96 6.528-16.96 14.592s7.584 14.624 16.96 14.624h62.08v39.68h-62.08c-9.376 0-16.96 6.56-16.96 14.624s7.584 14.592 16.96 14.592h45.856l-30.24 36.032c-5.472 6.528-3.776 15.68 3.808 20.384z"  horiz-adv-x="1024" />

    
    <glyph glyph-name="tijiandanf" unicode="&#59323;" d="M224 768v-768h576V555.84L590.72 768H224z m352-224V704l160-160h-160z m-80 44.64c12.448-15.36 17.056-32 15.808-48.768-1.28-16.48-8.128-32.48-17.6-47.168-18.912-29.344-49.6-55.68-73.984-73.6L416 416l-4.224 3.104c-24.416 17.92-55.04 44.256-73.984 73.6-9.472 14.72-16.32 30.72-17.6 47.168-1.28 16.8 3.36 33.408 15.776 48.768 22.112 27.392 58.144 23.456 80.032 2.304 21.888 21.12 57.92 25.088 80-2.304zM608 352v-64h-288v64h288z m96-128v-64H320v64h384z"  horiz-adv-x="1024" />

    
    <glyph glyph-name="fanduiqushif" unicode="&#59568;" d="M160 320h96V736H160v-416zM502.624 0a105.408 105.408 0 0 0-100.96 75.104L328.544 294.4 480 448l96-77.248 134.624 134.624L768 448V608h-160l57.376-57.376L576 461.248l-96 77.248-160-157.664V736h395.936a128 128 0 0 0 126.88-111.072l38.4-288A128 128 0 0 0 754.336 192h-135.68a10.656 10.656 0 0 1-10.656-10.656v-75.936A105.408 105.408 0 0 0 502.624 0z"  horiz-adv-x="1024" />

    
    <glyph glyph-name="jianmianchuyuanf" unicode="&#59569;" d="M513.92 433.92a48 48 0 1 1-67.84-67.84 48 48 0 0 1 67.84 67.84zM480 779.232l341.536-275.552A32 32 0 0 0 800 448h-64v-224h-160v-64h160v-160H224V448H160a32 32 0 0 0-21.536 55.68L480 779.232zM328.768 425.28a40.736 40.736 0 0 1 0.064-50.56l2.56-3.232C375.552 316.16 425.184 288 479.968 288c55.904 0 106.432 29.344 151.264 86.784a40.736 40.736 0 0 1 0 50.528l-2.56 3.232C584.576 483.84 534.88 512 479.936 512c-55.84 0-106.4-29.312-151.2-86.72zM736 160v64h64v96l160-128-160-128v96h-64z"  horiz-adv-x="1024" />

    
    <glyph glyph-name="shuohuayindaoquanyouf" unicode="&#59570;" d="M460.672 388.064a47.2 47.2 0 1 1 94.4 0 47.2 47.2 0 0 1-94.4 0zM32 377.6C32 593.12 246.88 768 512.064 768 777.184 768 992 593.152 992 377.6c0-215.616-214.88-390.464-480.064-390.464-85.504 0-165.76 18.24-235.328 50.144a14.944 14.944 0 0 1-18.08-4.512A164.672 164.672 0 0 0 126.496-32a172.352 172.352 0 0 0-41.984 5.056 30.016 30.016 0 0 0-16.96 46.656A497.216 497.216 0 0 1 127.776 131.2a15.136 15.136 0 0 1-2.88 15.488C66.496 211.36 32 291.136 32 377.6z m271.936-194.144l284.96 123.648 123.584 284.864 0.064 0.064-284.256-124.32-124.352-284.256z"  horiz-adv-x="1024" />

    
    <glyph glyph-name="xinqianf" unicode="&#59571;" d="M858.784 690.56C762.88 800.16 606.848 784.352 512 699.776 417.152 784.32 261.088 800.16 165.216 690.56c-53.76-61.44-73.824-127.936-68.352-195.04 5.408-65.92 35.2-129.92 76.288-188.736 81.952-117.376 214.816-222.656 320.512-294.336L512 0l18.336 12.448c105.696 71.68 238.56 176.96 320.512 294.336 41.088 58.816 70.88 122.816 76.288 188.736 5.472 67.104-14.592 133.6-68.352 195.04zM439.52 624.8L512 528.16l72.448 96.64a34.912 34.912 0 0 0 47.68 7.36c15.264-10.656 18.656-31.264 7.616-46.016l-60.896-74.016h92.416c18.848 0 34.112-14.752 34.112-32.96s-15.264-30.208-34.112-30.208h-125.12v-94.72h125.12c18.848 0 34.112-14.784 34.112-32.96 0-18.24-15.264-30.24-34.112-30.24h-125.12v-120.192c0-18.176-15.296-37.696-34.144-37.696-18.88 0-34.112 19.52-34.112 37.696v120.192h-125.12c-18.88 0-34.144 12.032-34.144 30.208 0 18.24 15.264 32.96 34.112 32.96h125.12v94.72h-125.12c-18.848 0-34.112 12.032-34.112 30.24s15.264 32.96 34.112 32.96h92.416l-60.896 74.016a32.224 32.224 0 0 0 7.616 46.016 34.912 34.912 0 0 0 47.68-7.36z"  horiz-adv-x="1024" />

    
    <glyph glyph-name="qian7f" unicode="&#59572;" d="M343.904 337.056c-19.936 0-37.984-5.056-41.376-6.048l-16.096-4.928a312 312 0 0 0-70.528 198.528C215.904 694.4 349.12 832 513.536 832c164.384 0 297.664-137.6 297.664-307.36 0-109.344-55.392-205.056-138.624-259.584-8.96 41.184-44.544 72-87.104 72h-241.568z m160.64 318.56l-117.728-121.6a13.44 13.44 0 0 1 0-18.656l117.76-121.6a12.48 12.48 0 0 1 18.048 0l117.76 121.6a13.44 13.44 0 0 1 0 18.656l-117.76 121.6a12.48 12.48 0 0 1-18.048 0zM872.512 266.016l40.224-6.72c15.04-2.688 20.512-22.08 9.312-32.16l-310.816-283.904s-8.96-7.232-21.888-7.232c-5.952 0-12.608 1.44-19.712 5.888l-261.28 155.808a4.48 4.48 0 0 1-2.432 0.736 5.632 5.632 0 0 1-1.408-0.256l-156.096-47.328c-0.48-0.096-0.96-0.224-1.408-0.224a4.928 4.928 0 0 0-4.8 3.616l-46.048 161.92a5.312 5.312 0 0 0 3.392 6.4l215.104 65.248s6.624 1.792 15.264 3.136a65.376 65.376 0 0 1 2.56 0.32c3.616 0.384 7.456 0.736 11.424 0.736h241.6c25.152 0 45.568-21.056 45.568-47.04v-27.36c0-25.984-20.416-47.04-45.6-47.04H532.48l62.944-37.6a4.48 4.48 0 0 1 2.432-0.704 4.352 4.352 0 0 1 2.464 0.608l207.872 121.216a94.976 94.976 0 0 0 64.352 11.936z"  horiz-adv-x="1024" />

    
    <glyph glyph-name="tongjif" unicode="&#59573;" d="M160 768v-736h240.48A288 288 0 0 0 736 463.616V768H160z m480-192H288V640h352v-64z m-256-128H288v64h96v-64zM608 413.76A224.032 224.032 0 0 1 640-32a224.032 224.032 0 0 1 221.76 192H608v253.76zM672 413.76A224.128 224.128 0 0 0 861.76 224H672v189.76z"  horiz-adv-x="1024" />

    
    <glyph glyph-name="hezuowoshouyuedingf" unicode="&#59574;" d="M852.192 646.144h51.808c14.848 0 29.12-5.792 39.584-16.096 10.528-10.304 16.416-24.256 16.416-38.816V316.8c0-14.56-5.888-28.544-16.416-38.816a56.576 56.576 0 0 0-39.584-16.096h-101.952l-234.336 331.84-27.232 37.824-166.784-75.456a57.056 57.056 0 0 0-34.496-4C288.32 562.08 271.232 579.552 288 604.48c16.192 24.128 85.184 72.64 206.976 145.6 3.2 1.92 6.496 3.584 9.888 4.896 51.136 23.616 109.536 15.104 175.104-25.536a909.44 909.44 0 0 1 172.192-83.296h0.032zM102.24 264.704a55.936 55.936 0 0 0-27.68 19.968A54.176 54.176 0 0 0 64 316.8V591.232c0 14.56 5.888 28.512 16.416 38.816a56.576 56.576 0 0 0 39.584 16.096h129.12l-0.192-0.192c-7.808-6.912-13.984-15.36-18.112-24.8a69.856 69.856 0 0 1 1.632-59.552c4.672-9.216 11.296-17.344 19.456-23.808 20.16-15.968 44.224-26.56 69.824-30.72s51.84-1.792 76.192 6.912l125.984 45.024 88.32-125.152c2.72-2.56 5.184-5.376 7.328-8.416L774.4 206.08a54.272 54.272 0 0 0 8.16-44.96c-2.016-7.616-5.664-14.72-10.752-20.864a55.84 55.84 0 0 0-18.624-14.592l-247.36-119.968a56.704 56.704 0 0 0-35.84-4.608l9.184 9.088a108.672 108.672 0 0 1 32.32 77.184c0 28.896-11.616 56.64-32.32 77.184l-179.2 177.76a84.16 84.16 0 0 1-27.392 18.08 85.504 85.504 0 0 1-92.128-18.112l-78.24-77.568h0.032z m175.552 23.584l158.944-157.6c6.848-6.784 11.776-15.232 14.272-24.48 2.528-9.216 2.528-18.944 0-28.16l-8-29.76c-1.792-6.656-5.248-12.8-10.016-17.856a44 44 0 0 0-57.28-5.376l-204.352 147.328a55.232 55.232 0 0 0-15.776 17.536 54.112 54.112 0 0 0 9.12 65.28l33.408 33.152a56.064 56.064 0 0 0 39.84 16.32 56.96 56.96 0 0 0 39.84-16.32v-0.064z"  horiz-adv-x="1024" />

    
    <glyph glyph-name="xieshuif" unicode="&#59575;" d="M736.512 773.408c-67.424-68-179.616-233.28-179.616-332s80.416-178.72 179.616-178.72c99.2 0 179.584 80 179.584 178.72 0 98.688-109.504 262.176-179.584 332zM520.96 438.4c0 42.112 17.216 94.4 42.816 147.808-53.6 85.12-114.72 162.592-164 211.584-109.504-110.592-291.808-379.104-291.808-539.52 0-160.384 130.592-290.464 291.808-290.464 151.2 0 275.584 114.496 290.304 261.184-96.704 21.12-169.12 106.816-169.12 209.408z m2.304-173.504a31.04 31.04 0 0 0-30.912-31.2h-49.376v-46.784c0-17.312-13.792-31.2-30.912-31.2h-30.912a31.04 31.04 0 0 0-30.88 31.2v46.784h-43.2a31.104 31.104 0 0 0-30.912 31.2v31.2a31.04 31.04 0 0 0 30.912 31.2h43.2v46.816a31.04 31.04 0 0 0 30.912 31.2h30.88c16.992 0 30.912-14.016 30.912-31.2v-46.816h49.376a31.04 31.04 0 0 0 30.912-31.2v-31.2z"  horiz-adv-x="1024" />

    
    <glyph glyph-name="shentangniaobingf" unicode="&#59576;" d="M355.04 284.928c-6.144-8.64-11.84-20.672-16.576-35.296-14.016-42.816-20.608-132.576 3.488-189.76 24.608-58.688-150.784-70.656-165.344-23.84-26.976 86.912-22.592 239.2 9.216 319.552 27.264 68.704 78.592 115.584 145.152 135.712-37.056 48.512-36.448 118.976-10.56 172.288 41.12 84.8 165.44 99.008 238.912 87.904 133.92-20.32 245.248-121.6 283.648-258.048 33.184-117.984 16.832-254.208-41.664-347.04-46.464-73.792-130.624-113.024-216.288-113.024-65.28 0-128.736 21.952-175.36 61.76-51.296 43.904-72.32 125.696-54.624 189.792zM662.592 160l11.712 83.52c-76.512 7.36-123.008 39.104-125.152 49.664a13.76 13.76 0 0 0 0.544 1.984v0.096c1.376 1.056 21.536 14.176 129.024-8.96L704 367.712c-73.12 15.776-155.2 27.84-209.568-2.016-24.96-13.632-40.576-34.272-45.312-59.744-4.32-23.552 3.84-47.424 23.744-69.12 36.288-39.616 109.024-69.056 189.728-76.832z m-171.872 329.728c20.128-32.32 56.896-41.728 92.736-41.728 44.512 0 87.616 14.464 95.68 17.28 20.48 7.36 30.304 27.52 21.888 45.216-8.448 17.664-31.936 26.176-52.416 18.976-36.48-12.736-81.12-16.32-87.488-5.984 1.152 12.8 53.12 41.76 72.64 52.672l1.12 0.64c4.32 2.24 8.096 5.28 11.04 8.96a31.68 31.68 0 0 1 6.112 12.48 30.528 30.528 0 0 1-5.76 26.176c-12.064 16.064-37.6 20.32-56.224 9.92-52.608-29.28-140.608-78.336-99.328-144.608z"  horiz-adv-x="1024" />

    
    <glyph glyph-name="xinlif" unicode="&#59577;" d="M496 800a112 112 0 0 1-110.88-96H192v-671.36l251.616-3.52L480 144 800 448V704h-193.12A112 112 0 0 1 496 800z m45.472-96.608A48 48 0 1 0 541.28 704l0.192-0.576z m74.56-156.416c18.624-23.04 25.568-48 23.68-73.152-1.888-24.736-12.192-48.736-26.432-70.784-28.352-44-74.336-83.488-110.912-110.4L496 288l-6.336 4.672c-36.608 26.88-82.56 66.368-110.944 110.368-14.24 22.08-24.544 46.08-26.432 70.784-1.888 25.152 5.056 50.08 23.68 73.152 33.184 41.088 87.2 35.168 120.032 3.424 32.832 31.744 86.848 37.664 120.032-3.424zM528 112c47.072 41.056 288 272 288 272l80-96s-247.584-237.504-288-272l-112-16 32 112z"  horiz-adv-x="1024" />

    
    <glyph glyph-name="shouye" unicode="&#59567;" d="M928 384h-128v-384h-256v224h-64v-224H224V384H96L512 768l416-384zM512 680.896L288 464V64h128v224h192v-224h128V464l-224 216.896z"  horiz-adv-x="1024" />

    
    <glyph glyph-name="shanchuf" unicode="&#59566;" d="M384 608V768h256v-160h256v-64h-96v-544H224V544H128V608h256z m64 96v-96h128V704h-128z m-64-256v-288h64v288h-64z m256 0h-64v-288h64v288z"  horiz-adv-x="1024" />

    
    <glyph glyph-name="bianjif" unicode="&#59565;" d="M128 96h768v-64H128v64zM783.424 651.936c22.08-22.112 22.08-55.296 0-77.408l-82.912-82.88-176.864 176.864 82.88 82.88c22.112 22.144 55.296 22.144 77.408 0l99.488-99.456z m-298.464-22.112L192 336.864V160h176.864l292.96 292.96-176.864 176.864z"  horiz-adv-x="1024" />

    
    <glyph glyph-name="ppt" unicode="&#59372;" d="M512 448h-96v-288h64v96h32a96 96 0 1 1 0 192z m0-128h-32v64h32a32 32 0 1 0 0-64zM590.72 768H224v-768h576V523.84L590.72 768zM288 64V704h256v-224h192v-416H288z m410.432 480H608V649.504L698.432 544z"  horiz-adv-x="1024" />

    
    <glyph glyph-name="UKEY" unicode="&#59373;" d="M544 576V640h-64v-64h64zM352 768h320v-256h128v-512H224V512h128V768z m384-704v96H288v-96h448zM288 448v-224h448v224H288z m320 64V704h-192v-192h192z"  horiz-adv-x="1024" />

    
    <glyph glyph-name="pdf" unicode="&#59374;" d="M590.72 768H224v-320h64V704h256v-224h192v-32h64v75.84L590.72 768z m107.712-224H608V649.504L698.432 544zM288 160H224v-160h576v160h-64v-96H288v96zM384 416H224v-224h64v64h96v160z m-64-96H288v32h32v-32zM557.248 416H448v-224h109.248L608 242.752v122.496L557.248 416zM512 256v96h18.752l13.248-13.248v-69.504l-13.248-13.248H512zM800 352v64h-128v-224h64v64h64v64h-64v32h64z"  horiz-adv-x="1024" />

    
    <glyph glyph-name="USB" unicode="&#59375;" d="M288 768h448v-320h128v-448h-64V384H224v-384H160V448h128V768z m64-320h320V704H352v-256z m64 96V640h64v-96h-64z m128 0V640h64v-96h-64z"  horiz-adv-x="1024" />

    
    <glyph glyph-name="wifi" unicode="&#59376;" d="M722.88 278.784a324.736 324.736 0 0 1-210.08 76.128c-80.416 0-153.824-28.704-210.144-76.224a7.68 7.68 0 0 1-0.8-10.88l36-41.6c2.88-3.264 8-3.648 11.392-0.864a250.976 250.976 0 0 0 163.552 59.744c62.72 0 119.936-22.496 163.52-59.616a8.256 8.256 0 0 1 11.424 0.864l36 41.6a7.616 7.616 0 0 1-0.896 10.88z m117.408 135.872c-88.736 71.648-202.88 114.816-327.488 114.816-124.64 0-238.752-43.168-327.584-114.816a7.648 7.648 0 0 1-0.992-10.976l36-41.6a8.128 8.128 0 0 1 11.2-0.96 447.36 447.36 0 0 0 281.376 98.528c106.912 0 205.056-37.056 281.28-98.56a8.096 8.096 0 0 1 11.2 0.992l36 41.6a7.648 7.648 0 0 1-0.992 10.976z m116.736 134.784C835.584 646.016 680.128 704 510.816 704c-168.256 0-322.688-57.216-443.84-152.64a7.584 7.584 0 0 1-1.088-11.04l36-41.6c2.816-3.2 7.808-3.68 11.104-1.088 108.736 85.44 247.04 136.544 397.792 136.544 151.84 0 291.072-51.872 400.128-138.368 3.392-2.72 8.384-2.24 11.2 1.056l36 41.6a7.488 7.488 0 0 1-1.088 10.976zM447.776 126.08c0-16.48 6.752-32.256 18.752-43.904 12-11.648 28.288-18.176 45.28-18.176 16.96 0 33.28 6.528 45.248 18.176a61.12 61.12 0 0 1 18.752 43.872 61.12 61.12 0 0 1-18.752 43.904 65.056 65.056 0 0 1-45.248 18.176c-16.96 0-33.28-6.56-45.28-18.176a61.12 61.12 0 0 1-18.752-43.904z"  horiz-adv-x="1024" />

    
    <glyph glyph-name="bingchuang3" unicode="&#59377;" d="M548 881.984L460 704H288v-64h212l40 82.016L631.008 480 752 640H896V704h-176l-71.008-92L548 882.016v-0.032zM208 544A79.904 79.904 0 0 1 128 464V0h160v64h448v-64h160V352c0 52.64-43.36 96-96 96H416v-18.016A125.664 125.664 0 0 1 352 448c-23.488 0-44.992-6.848-64-18.016V464C288 508.256 252.256 544 208 544z m0-64c6.88 0 16-9.12 16-16V192h608v-128h-32v64H224v-64H192V464c0 6.88 9.12 16 16 16z m144-96c35.744 0 64-28.256 64-64s-28.256-64-64-64-64 28.256-64 64 28.256 64 64 64z m128 0h320c17.76 0 32-14.24 32-32v-96H480v128z"  horiz-adv-x="1024" />

    
    <glyph glyph-name="baifenhao" unicode="&#59378;" d="M304 704A112.448 112.448 0 0 1 192 592v-96C192 434.496 242.496 384 304 384s112 50.496 112 112v96C416 653.504 365.504 704 304 704z m360 0l-384-640h80l384 640h-80zM304 640c26.88 0 48-21.12 48-48v-96c0-26.88-21.12-48-48-48S256 469.12 256 496v96C256 618.88 277.12 640 304 640z m416-256a112.448 112.448 0 0 1-112-112v-96c0-61.504 50.496-112 112-112s112 50.496 112 112v96c0 61.504-50.496 112-112 112z m0-64c26.88 0 48-21.12 48-48v-96c0-26.88-21.12-48-48-48s-48 21.12-48 48v96c0 26.88 21.12 48 48 48z"  horiz-adv-x="1024" />

    
    <glyph glyph-name="bianji1" unicode="&#59379;" d="M813.312 749.312l64-64L922.496 640l-448-448H320v154.496l448 448 45.312-45.184zM384 256h64l233.408 233.408-64 64L384 320v-64z m278.592 342.592l64-64L832 640l-64 64-105.408-105.408zM768 64V384h64v-384H128V704h384v-64H192v-576h576z"  horiz-adv-x="1024" />

    
    <glyph glyph-name="baocun" unicode="&#59380;" d="M128 768h768v-768H128V768z m512-64h-64v-160h-64V704h-128v-224h256V704zM320 704H192v-640h640V704h-128v-288H320V704z"  horiz-adv-x="1024" />

    
    <glyph glyph-name="baifenhao2" unicode="&#59381;" d="M160 736v-704h704V736H160z m64-64h576v-576H224V672z m160-64c-52.64 0-96-43.36-96-96v-32c0-52.64 43.36-96 96-96s96 43.36 96 96v32c0 52.64-43.36 96-96 96z m243.008 0L320 160h76.992L704 608h-76.992zM384 544c18.112 0 32-13.888 32-32v-32c0-18.112-13.888-32-32-32-18.112 0-32 13.888-32 32v32c0 18.112 13.888 32 32 32z m256-160c-52.64 0-96-43.36-96-96v-32c0-52.64 43.36-96 96-96s96 43.36 96 96v32c0 52.64-43.36 96-96 96z m0-64c18.112 0 32-13.888 32-32v-32c0-18.112-13.888-32-32-32-18.112 0-32 13.888-32 32v32c0 18.112 13.888 32 32 32z"  horiz-adv-x="1024" />

    
    <glyph glyph-name="word2" unicode="&#59382;" d="M414.752 424.8a32 32 0 0 1-61.504-17.6l64-224a32 32 0 0 1 61.12-1.312L512 282.816l33.632-100.928a32 32 0 0 1 61.12 1.312l64 224a32 32 0 1 1-61.504 17.6l-35.616-124.544-31.264 93.856a32 32 0 0 1-60.736 0l-31.296-93.856-35.584 124.544zM590.72 768H224v-768h576V523.84L590.72 768zM288 64V704h256v-224h192v-416H288z m410.432 480H608V649.504L698.432 544z"  horiz-adv-x="1024" />

    
    <glyph glyph-name="bingchuang2" unicode="&#59383;" d="M896 512h-64v-160H192V768H128v-736h64v96h320v64H192v96h640v-96h-192v-64h192v-96h64V512zM352 416a96 96 0 1 1 0 192 96 96 0 0 1 0-192z m0 64a32 32 0 1 0 0 64 32 32 0 0 0 0-64zM480 608v-192h288V608h-288z m224-64v-64h-160v64h160z"  horiz-adv-x="1024" />

    
    <glyph glyph-name="bingchuang" unicode="&#59384;" d="M192 768v-192h320v-224h320v160h64v-480h-64v96h-192v64h192v96H192v-96h320v-64H192v-96H128V768h64z m0-416h256v160H192v-160z"  horiz-adv-x="1024" />

    
    <glyph glyph-name="baitianqianse" unicode="&#59385;" d="M512.544 124.416a258.4 258.4 0 1 0 258.464 258.432 258.72 258.72 0 0 0-258.464-258.432z m0 448.864a190.4 190.4 0 1 1 0-380.864 190.4 190.4 0 0 1 0 380.864z m1.152 128.672a33.984 33.984 0 0 0-34.016 34.016V800.544a34.016 34.016 0 0 0 68.032 0v-64.608a34.016 34.016 0 0 0-34.016-33.984z m0-768.512a34.016 34.016 0 0 0-34.016 34.016v64.608a34.048 34.048 0 0 0 58.24 24.32 34.048 34.048 0 0 0 9.792-24.32v-64.64a34.016 34.016 0 0 0-34.016-33.984z m414.848 416.544h-64.608A33.92 33.92 0 0 0 829.536 384a34.016 34.016 0 0 0 34.4 34.016h64.64a34.016 34.016 0 0 0 0-68.032z m-768.512 0H95.456a34.016 34.016 0 0 0 0 68h64.608a34.016 34.016 0 0 0 0-68z m600.832 248.864a34.016 34.016 0 0 0-24.064 58.048l45.696 45.696a34.016 34.016 0 0 0 48.064-48.096l-45.664-45.664a33.856 33.856 0 0 0-24.032-9.984zM217.44 55.456a34.016 34.016 0 0 0-24.064 58.048l45.696 45.664a33.92 33.92 0 0 0 55.456-11.008 34.016 34.016 0 0 0-7.36-37.056l-45.664-45.696a33.92 33.92 0 0 0-24.064-9.952z m589.12 0a33.888 33.888 0 0 0-24.064 9.952l-45.664 45.696a34.016 34.016 0 1 0 48.064 48.096l45.696-45.696a33.984 33.984 0 0 0-24.032-58.048zM263.136 598.848a33.888 33.888 0 0 0-24.064 9.984L193.376 654.496a34.016 34.016 0 1 0 48.096 48.096l45.696-45.696a34.016 34.016 0 0 0-24.032-58.048z"  horiz-adv-x="1024" />

    
    <glyph glyph-name="bianji2" unicode="&#59386;" d="M128 768h672v-160h-64V704H192v-640h544v96h64v-160H128V768z m160-192h293.664v-64H288v64z m480-18.752L909.248 416l-256-256H512v141.248l256 256z m-192-282.496V224h50.752l192 192L768 466.752l-192-192zM288 416h192v-64H288v64z m0-160h128v-64H288v64z"  horiz-adv-x="1024" />

    
    <glyph glyph-name="bingli" unicode="&#59387;" d="M256 320v-64h96v-96h64v96h96v64h-96v96h-64v-96H256zM576 384h192v-64h-192v64zM576 256h192v-64h-192v64zM384 768h-64v-96H128v-672h768V672h-192V768h-64v-96h-256V768z m320-160h128v-544H192V608h128v-96h64V608h256v-96h64V608z"  horiz-adv-x="1024" />

    
    <glyph glyph-name="che" unicode="&#59388;" d="M364.8 344.896v-110.24h294.4v110.24h-64v-46.24h-166.4v46.24h-64zM320 320a32 32 0 1 0-64 0 32 32 0 0 0 64 0zM736 288a32 32 0 1 1 0 64 32 32 0 0 1 0-64zM800 32l-19.2 39.104H243.2L224 32H128V384l28.992 66.464-81.664 69.12 41.344 48.832L183.68 511.68 281.6 736h460.8l97.888-224.32 67.04 56.736 41.344-48.832-81.664-69.12L896 384v-352h-96z m12.192 384H211.776L192 370.656v-258.592l11.328 23.04h617.344l11.328-23.04v258.56L812.192 416z m-27.904 64L700.48 672H323.488l-83.776-192H784.32z"  horiz-adv-x="1024" />

    
    <glyph glyph-name="dayin2" unicode="&#59389;" d="M800 384v64h-128v-64h128zM288 768v-192H96v-448h192v-128h448v128h192V576h-192V768H288z m384-192H352V704h320v-128zM288 192H160V512h704v-320h-128v128H288v-128z m64 64h320v-192H352v192z"  horiz-adv-x="1024" />

    
    <glyph glyph-name="ciyao" unicode="&#59390;" d="M448 608v-256h192v128l192-160-192-160v128h-256V608h64z"  horiz-adv-x="1024" />

    
    <glyph glyph-name="chuyuan" unicode="&#59391;" d="M512 779.232L885.536 439.68A32 32 0 0 0 864 384h-149.344v64h66.56L512 692.768 242.784 448H320v-384h448v-64H256V384H160a32 32 0 0 0-21.536 55.68L512 779.232zM544 544v-96h96v-64h-96v-96h-64v96h-96v64h96v96h64zM770.912 256H576v-64h194.912l-32.32-31.264 44.544-45.984L896 224l-112.864 109.248-44.512-45.984L770.88 256z"  horiz-adv-x="1024" />

    
    <glyph glyph-name="dengbi" unicode="&#59392;" d="M320 544v-320h64V544h-64zM640 544v-320h64V544h-64zM560 464a48 48 0 1 0-96 0 48 48 0 0 0 96 0zM560 304a48 48 0 1 0-96 0 48 48 0 0 0 96 0zM896 768H128v-768h768V768zM192 64V704h640v-640H192z"  horiz-adv-x="1024" />

    
    <glyph glyph-name="dazhen" unicode="&#59393;" d="M743.008 775.008L696.96 728.96l12-12-72.992-72.992 44.992-46.016L754.016 672 800 625.984l-74.016-72.96 46.016-45.024 72.992 72.992 12-12L903.04 615.04l-160.032 159.968z m-176-112L520.96 616.96l21.024-20.992L224 276.992l-11.008-10.976 2.016-15.04 10.976-101.984 1.024-10.976 2.976-2.016L126.016 32h91.008l65.024 64.992 96.96-9.984 15.04-2.016 10.976 11.008 319.008 318.016 20.992-21.024 46.016 46.016-224.032 224z m20.992-113.024l90.016-89.984-307.008-308-76 8.992-6.016 6.016-8.992 76 308 306.976z"  horiz-adv-x="1024" />

    
    <glyph glyph-name="daohang" unicode="&#59394;" d="M128 672h768v-64H128V672z m0-256h768v-64H128v64z m0-256h768v-64H128v64z"  horiz-adv-x="1024" />

    
    <glyph glyph-name="cuowujinggao" unicode="&#59395;" d="M560 176a48 48 0 1 0-96 0 48 48 0 0 0 96 0zM544 480h-64v-192h64v192zM512 768a32 32 0 0 0 27.52-15.712l416-704A32 32 0 0 0 928 0H96a32 32 0 0 0-27.52 48.288l416 704A32 32 0 0 0 512 768z m359.936-704L512 673.088 152.064 64h719.872z"  horiz-adv-x="1024" />

    
    <glyph glyph-name="dui" unicode="&#59396;" d="M813.056 580.096l-362.88-435.52L210.72 384 256 429.248l189.856-189.856 318.048 381.664 49.152-40.96z"  horiz-adv-x="1024" />

    
    <glyph glyph-name="dui2" unicode="&#59397;" d="M512-32c229.76 0 416 186.24 416 416S741.76 800 512 800 96 613.76 96 384s186.24-416 416-416z m0 768c194.4 0 352-157.6 352-352s-157.6-352-352-352S160 189.6 160 384 317.6 736 512 736zM462.976 210.464l271.52 289.6L688 544l-227.008-242.464-109.696 106.368-44.544-45.92 156.224-151.52z"  horiz-adv-x="1024" />

    
    <glyph glyph-name="dayin" unicode="&#59398;" d="M576 384h-128v-64h128v64zM448 256h128v-64h-128v64zM896 768H128v-416h192v-352h384V352h192V768z m-256-704h-256V512h256v-448z m192 352h-128v160H320v-160H192V704h640v-288z"  horiz-adv-x="1024" />

    
    <glyph glyph-name="fangda" unicode="&#59399;" d="M480 576v-96h96v-64h-96v-96h-64v96h-96v64h96v96h64zM448 192a254.88 254.88 0 0 1 156.992 53.76l181.76-181.76L832 109.248l-181.76 181.76A256 256 0 1 1 448 192z m0 448a192 192 0 1 0 0-384 192 192 0 0 0 0 384z"  horiz-adv-x="1024" />

    
    <glyph glyph-name="duoren" unicode="&#59400;" d="M416 704a128 128 0 0 1 0-256v-64c-5.376 0-10.72 0.224-16 0.64V384C283.008 384 192 296 192 192H128c0 107.2 69.184 197.12 165.984 235.744A192 192 0 1 0 592 652.8l-58.656-25.6A128.032 128.032 0 0 1 416 704zM448 384a192 192 0 1 0 302.208-157.248C836.288 184.32 896 99.584 896 0h-64c0 104-91.008 192-208 192S416 104 416 0h-64c0 107.2 69.184 197.12 165.984 235.744A191.616 191.616 0 0 0 448 384z m192 128a128 128 0 1 1 0-256 128 128 0 0 1 0 256z"  horiz-adv-x="1024" />

    
    <glyph glyph-name="dianhua" unicode="&#59401;" d="M161.504 646.4L263.744 748.48a66.048 66.048 0 0 0 93.696 0l110.08-109.888a66.24 66.24 0 0 0 0-93.888l-85.984-86.08a389.184 389.184 0 0 1 82.944-122.24 389.952 389.952 0 0 1 122.112-83.104l86.016 86.08a66.048 66.048 0 0 0 93.696 0l110.208-109.888a66.24 66.24 0 0 0 0-93.888l-102.144-102.112A114.976 114.976 0 0 0 693.536 0c-6.24 0-12.288 0.48-18.432 1.536-127.104 20.928-253.248 88.608-355.104 190.336-101.76 101.952-169.344 228.064-190.464 355.264a114.4 114.4 0 0 0 31.968 99.232z m36.096-87.84c18.72-113.184 79.584-226.048 171.264-317.728s204.48-152.512 317.664-171.232c14.208-2.4 28.8 2.4 39.168 12.672l100.32 100.288-106.368 106.464-115.008-115.2-0.864-0.864-20.736 7.68a461.984 461.984 0 0 0-274.272 274.336l-7.68 20.736 115.968 115.84-106.368 106.464L210.368 597.76c-10.368-10.368-15.168-24.96-12.8-39.168z"  horiz-adv-x="1024" />

    
    <glyph glyph-name="fanhui" unicode="&#59402;" d="M436.352 716.48L327.872 608h273.568C728.8 608 832 495.36 832 368S728.768 128 601.44 128H288v64h313.44C698.816 192 768 270.624 768 368S698.816 544 601.44 544h-273.6l108.48-108.48-38.336-38.4L224 576l173.984 178.88 38.368-38.4z"  horiz-adv-x="1024" />

    
    <glyph glyph-name="gaizhang" unicode="&#59403;" d="M192 768h640v-320h-64V704H256v-608h160v-64H192V768zM704 544H320V608h384v-64zM480 416h-160v64h160v-64zM640 224h-160v-192h384v192h-160v37.44a96.032 96.032 0 1 1-64 0V224z m-96-64h256v-64h-256v64z m160 192a32 32 0 1 0-64 0 32 32 0 0 0 64 0z"  horiz-adv-x="1024" />

    
    <glyph glyph-name="fenxiang2" unicode="&#59404;" d="M512 781.248l166.624-166.624-45.248-45.248L544 658.752V224h-64V658.752l-89.376-89.376-45.248 45.248L512 781.248zM160 480h192v-64H224v-352h576V416h-128v64h192v-480H160V480z"  horiz-adv-x="1024" />

    
    <glyph glyph-name="duka" unicode="&#59405;" d="M128 768h768v-352h-128v64h64V704H192v-224h64v-64H128V768z m128-160h512v-64h-64v-544H320V544H256V608z m128-64v-480h256V544h-256z m128-128v-196h-64V416h64z"  horiz-adv-x="1024" />

    
    <glyph glyph-name="fenxiang1" unicode="&#59406;" d="M480 702.848L918.4 384 480 65.152v191.584c-74.624-1.792-205.088-27.072-297.376-119.36A32 32 0 0 0 128 160c0 122.304 66.624 207.04 145.792 261.888 67.52 46.784 145.92 73.28 206.208 85.184V702.848z m64-125.696v-125.088l-27.68-3.776c-54.944-7.488-137.856-31.712-206.08-78.976-47.68-33.024-86.944-76.224-105.92-132.288 114.624 75.488 248.16 87.648 310.144 82.88l29.536-2.272v-126.784L809.6 384 544 577.152z"  horiz-adv-x="1024" />

    
    <glyph glyph-name="diqiuwangluo" unicode="&#59407;" d="M829.952 115.744l0.64 0.832A413.952 413.952 0 0 1 928 384a414.4 414.4 0 0 1-97.312 267.424c-0.192 0.288-0.48 0.48-0.64 0.736-1.024 1.216-1.952 2.336-2.976 3.456l-1.12 1.28-3.808 4.384-0.096 0.096c-1.408 1.568-2.88 3.136-4.256 4.736l-0.096 0.096c-2.976 3.136-5.952 6.304-9.024 9.376l-0.096 0.096-4.448 4.448-0.288 0.288a160.672 160.672 0 0 1-5.664 5.376 68.928 68.928 0 0 1-2.784 2.592c-0.288 0.288-0.64 0.544-0.928 0.96A414.016 414.016 0 0 1 512 800a414.4 414.4 0 0 1-282.56-110.688c-0.288-0.288-0.64-0.544-0.96-0.928l-2.752-2.688a21.696 21.696 0 0 0-1.504-1.408l-4.16-3.968-0.288-0.32-4.48-4.416-0.064-0.096c-3.072-3.072-6.048-6.24-9.024-9.376l-0.064-0.096c-1.504-1.6-2.88-3.168-4.288-4.736l-0.096-0.096c-1.28-1.408-2.592-2.88-3.808-4.384l-1.12-1.28c-1.024-1.12-1.92-2.336-2.976-3.456-0.16-0.256-0.448-0.448-0.64-0.736A414.4 414.4 0 0 1 96 384a414.4 414.4 0 0 1 97.312-267.424l0.64-0.832 2.88-3.456 1.12-1.28 3.84-4.384c0-0.096 0.064-0.096 0.064-0.16 1.408-1.6 2.784-3.2 4.288-4.672l0.064-0.064c2.976-3.2 5.952-6.336 8.928-9.376l0.096-0.096c1.472-1.504 2.88-2.976 4.352-4.384l0.288-0.256A415.232 415.232 0 0 1 512-32a414.4 414.4 0 0 1 291.84 119.616l0.288 0.256c1.472 1.504 2.976 2.88 4.352 4.384l0.096 0.096a281.28 281.28 0 0 1 8.928 9.376l0.096 0.096c1.376 1.568 2.88 3.04 4.256 4.64 0 0.064 0.096 0.064 0.096 0.16 1.28 1.408 2.592 2.88 3.84 4.384 0.32 0.448 0.704 0.832 1.088 1.28a91.84 91.84 0 0 1 3.072 3.456z m3.808 132.416c-12.8-30.272-29.728-58.336-50.336-83.776a412.32 412.32 0 0 1-75.68 51.904c10.784 43.552 17.472 91.392 19.2 141.696h133.28a347.2 347.2 0 0 0-26.464-109.824z m26.464 161.856h-133.248a694.112 694.112 0 0 1-19.232 141.696c27.2 14.464 52.544 31.936 75.68 51.904a347.2 347.2 0 0 0 76.8-193.6z m-212.384 295.744c36.864-15.616 70.4-37.152 99.936-64.256-17.184-14.688-35.68-27.584-55.168-38.816-14.592 41.792-33.248 78.08-54.976 107.136 3.456-1.28 6.88-2.688 10.24-4.064z m-84.128-650.56a105.152 105.152 0 0 0-25.696-15.232v172.256c37.024-2.624 72.96-10.784 107.424-24.32-7.712-22.848-16.64-43.936-26.944-62.976-16.16-30.08-35.072-54.144-54.784-69.76z m54.784 587.872c10.24-19.136 19.232-40.192 26.944-62.944-34.464-13.568-70.4-21.76-107.456-24.32v172.16c8.544-3.456 17.184-8.48 25.728-15.264 19.712-15.488 38.624-39.552 54.784-69.632zM538.016 264.32v93.664h136.96a644.736 644.736 0 0 0-15.136-118.656l-0.32-1.12a413.248 413.248 0 0 1-121.504 26.112z m0 145.664V503.68a413.248 413.248 0 0 1 121.536 26.112l0.288-1.12c8.544-37.792 13.632-77.536 15.136-118.688h-136.96z m-52-51.968v-93.696a413.248 413.248 0 0 1-121.568-26.112l-0.288 1.12a643.712 643.712 0 0 0-15.136 118.688h136.96z m-136.96 52c1.472 41.024 6.56 80.864 15.104 118.656l0.32 1.12c38.144-14.496 78.912-23.488 121.504-26.112v-93.696h-136.96z m136.96-197.792v-172.16a103.872 103.872 0 0 0-25.728 15.232c-19.712 15.488-38.72 39.648-54.88 69.728-10.24 19.136-19.2 40.192-26.944 62.944a362.432 362.432 0 0 0 107.52 24.256z m0 343.552a361.376 361.376 0 0 0-107.456 24.32c7.712 22.848 16.64 43.936 26.944 62.976 16.16 30.08 35.072 54.24 54.88 69.76 8.544 6.656 17.088 11.776 25.696 15.2v-172.256h-0.064z m-109.856 149.984c3.424 1.376 6.752 2.784 10.208 4.064-21.76-29.056-40.384-65.344-54.976-107.136a360 360 0 0 0-55.168 38.816c29.536 27.104 63.04 48.64 99.936 64.256z m-185.92-185.92c12.8 30.272 29.728 58.336 50.336 83.776 23.136-19.968 48.48-37.44 75.68-51.904a694.176 694.176 0 0 1-19.2-141.696H163.744a347.2 347.2 0 0 0 26.464 109.824z m-26.464-161.824h133.248c1.792-50.336 8.448-98.176 19.232-141.728-27.2-14.464-52.544-31.936-75.68-51.904a347.2 347.2 0 0 0-76.8 193.6z m212.384-295.776a347.072 347.072 0 0 0-99.936 64.256 366.72 366.72 0 0 0 55.168 38.816c14.592-41.792 33.248-78.08 54.976-107.136-3.424 1.28-6.88 2.688-10.24 4.064z m271.68 0c-3.424-1.376-6.784-2.784-10.208-4.064 21.76 29.056 40.384 65.344 54.976 107.136 19.52-11.136 37.984-24.128 55.168-38.816-29.536-27.104-63.04-48.64-99.936-64.256z"  horiz-adv-x="1024" />

    
    <glyph glyph-name="guanbitingzhi" unicode="&#59408;" d="M352 224V544h320v-320H352z m64 256v-192h192v192h-192zM512-32c229.76 0 416 186.24 416 416S741.76 800 512 800 96 613.76 96 384s186.24-416 416-416z m0 768c194.4 0 352-157.6 352-352s-157.6-352-352-352S160 189.6 160 384 317.6 736 512 736z"  horiz-adv-x="1024" />

    
    <glyph glyph-name="erweima" unicode="&#59409;" d="M832 352v-160h-64v160h-224v-352h64v288h95.968L704 128h192v224h-64zM256 640h96v-96H256V640zM128 416h352V768H128v-352z m64 288h224v-224H192V704zM128 0h352V352H128v-352z m64 288h224v-224H192v224zM895.936 768H544v-352h352l-0.064 352zM832 480h-224V704h224v-224zM672 640h96v-96h-96V640zM256 224h96v-96H256v96zM704 64h64v-64h-64.032L704 64zM832 64h63.936v-64H832v64z"  horiz-adv-x="1024" />

    
    <glyph glyph-name="gaizhangyin" unicode="&#59410;" d="M512 803.008a190.24 190.24 0 0 1-190.016-190.016c0-62.24 29.024-106.368 53.024-140 24-33.6 40.992-56.736 40.992-89.984v-102.016L152.992 223.04 128 217.984V64h32v-32c0-18.368 8.128-35.744 20.992-47.008 12.896-11.232 29.376-16.992 46.016-16.992h569.984c16.64 0 33.12 5.76 46.016 16.992A63.04 63.04 0 0 1 864 32v32h32v154.016l-24.992 4.992L608 280.96v102.08c0 33.248 16.992 56.352 40.992 89.984 24 33.632 53.024 77.76 53.024 140A190.24 190.24 0 0 1 512 803.008z m0-64a125.12 125.12 0 0 0 126.016-126.016c0-43.232-17.76-70.368-41.024-103.008C573.76 477.376 544 438.912 544 383.04V288h-64v95.008c0 55.872-29.76 94.368-52.992 126.976-23.264 32.64-40.992 59.776-40.992 103.04A125.216 125.216 0 0 0 512 738.976v0.032zM448 224h128l256-56.992V128H192v39.008L448 224z m-224-160h576v-31.008c-0.384-0.256-0.864-0.992-3.008-0.992H227.008c-2.144 0-2.624 0.736-3.008 0.992V64z"  horiz-adv-x="1024" />

    
    <glyph glyph-name="fenli2" unicode="&#59411;" d="M448 768H128v-192h64V704h192v-288H256v96l-160-128 160-128v96h128v-288H192v128H128v-192h320V768zM576 768h320v-192h-64V704h-192v-288h128v96l160-128-160-128v96h-128v-288h192v128h64v-192H576V768z"  horiz-adv-x="1024" />

    
    <glyph glyph-name="huatongluyin" unicode="&#59412;" d="M512 768a160 160 0 0 1-160-160v-192a160 160 0 0 1 320 0V608a160 160 0 0 1-160 160z m96-352a96 96 0 1 0-192 0V608a96 96 0 1 0 192 0v-192zM224 416v32h64v-32a224 224 0 1 1 448 0v32h64v-32c0-148.256-112-270.336-256-286.24V64h96v-64h-256v64h96v65.76c-144 15.904-256 137.984-256 286.24z"  horiz-adv-x="1024" />

    
    <glyph glyph-name="fuzhi" unicode="&#59413;" d="M640 416h-64v-96h-96v-64h96v-96h64v96h96v64h-96v96zM128 768v-608h192v-160h576V576h-160V768H128z m256-704V512h448v-448H384z m-192 160V704h480v-128H320v-352H192z"  horiz-adv-x="1024" />

    
    <glyph glyph-name="jianshao" unicode="&#59414;" d="M224 416h576v-64H224v64z"  horiz-adv-x="1024" />

    
    <glyph glyph-name="huli" unicode="&#59415;" d="M127.84 607.104l0.224 3.2 63.84-4.576-0.032-0.64c-5.376-75.072-14.912-208.544 59.552-332.608C293.888 201.696 312.96 120 318.304 64h97.28c-1.6 63.68-8.416 115.488-23.52 160.16-17.28 51.104-45.92 94.4-93.12 135.744l42.112 48.192c55.168-48.288 90.56-100.96 111.68-163.456 20.8-61.664 27.264-131.328 27.264-212.64v-32H256v32c0 43.36-14.976 133.44-59.456 207.52-84.896 141.504-74.112 292.096-68.704 367.584zM895.904 610.272l0.256-3.2c5.408-75.456 16.192-226.048-68.704-367.552C782.976 165.44 768 75.36 768 32v-32h-224v32c0 81.312 6.432 150.976 27.296 212.64 21.12 62.496 56.48 115.2 111.648 163.456l42.144-48.192c-47.232-41.312-75.904-84.64-93.184-135.744-15.072-44.672-21.888-96.48-23.52-160.16h97.28c5.408 56 24.448 137.696 66.88 208.48 74.496 124.064 64.96 257.536 59.584 332.608l-0.032 0.64 63.808 4.544zM256 768v-32l0.064-3.808a389.248 389.248 0 0 1 3.776-40.8c3.776-25.824 11.36-60.8 26.848-96.224 15.488-35.424 39.424-72.416 76.416-100.608 30.784-23.456 69.344-39.84 116.896-44.896V384h64v65.92c92.032 11.232 147.84 70.336 179.776 126.208 17.632 30.848 28.512 61.44 35.008 84.096a375.2 375.2 0 0 1 8.32 35.84l0.576 3.392L772.896 736H734.88a149.44 149.44 0 0 1-10.624-0.48c-6.912-0.448-16.608-1.344-28.16-3.136-22.912-3.552-54.048-10.72-85.568-25.344-31.616-14.688-64.512-37.312-89.536-72.128a203.52 203.52 0 0 1-4.256-6.208 232.992 232.992 0 0 1-101.632 105.504 294.176 294.176 0 0 1-86.464 29.536 289.376 289.376 0 0 1-36.992 4.16A134.56 134.56 0 0 1 289.184 768H256z m193.824-150.144c15.456-24.832 27.2-58.24 29.696-103.68-32.896 4.672-58.048 16.352-77.632 31.264-25.984 19.84-44.064 46.816-56.576 75.392a315.296 315.296 0 0 0-21.984 78.784 227.84 227.84 0 0 0 61.568-21.824 169.056 169.056 0 0 0 64.96-59.936z m94.88-103.136c2.88 36.16 13.888 62.816 28.288 82.88 16.992 23.68 40.096 40.032 64.48 51.36a251.68 251.68 0 0 0 56.48 18.048 313.92 313.92 0 0 0-25.728-59.136c-24.448-42.752-62.464-82.56-123.52-93.152z"  horiz-adv-x="1024" />

    
    <glyph glyph-name="guanbi" unicode="&#59416;" d="M320 621.248L274.752 576l192-192-192-192L320 146.752l192 192 192-192L749.248 192l-192 192 192 192L704 621.248l-192-192-192 192z"  horiz-adv-x="1024" />

    
    <glyph glyph-name="jiantouyoushang" unicode="&#59417;" d="M288 640h480v-480h-64V530.752L301.248 128 256 173.248 658.752 576H288V640z"  horiz-adv-x="1024" />

    
    <glyph glyph-name="jiantouzuo" unicode="&#59418;" d="M608 621.248L370.752 384 608 146.752 653.248 192l-192 192 192 192L608 621.248z"  horiz-adv-x="1024" />

    
    <glyph glyph-name="jiantouxia" unicode="&#59419;" d="M749.248 480L512 242.752 274.752 480 320 525.248l192-192 192 192L749.248 480z"  horiz-adv-x="1024" />

    
    <glyph glyph-name="fangshefushe1" unicode="&#59420;" d="M512 800C282.624 800 96 613.376 96 384s186.624-416 416-416 416 186.624 416 416S741.376 800 512 800z m0-64c194.752 0 352-157.248 352-352s-157.248-352-352-352S160 189.248 160 384 317.248 736 512 736z m-144-102.016C281.6 582.784 224 489.664 224 384h208c0 28.736 16.384 54.016 42.016 70.016L368 633.984z m288 0l-102.016-179.968c25.632-12.768 41.024-38.016 41.024-70.016H800c0 105.6-57.6 198.72-144 250.016v-0.032z m-307.008-96l40.992-73.984c-3.232-6.4-5.76-9.6-8.96-16H297.952c9.632 32 28.64 64.384 51.008 90.016l0.032-0.032z m326.016 0c25.6-25.6 41.376-57.984 50.976-89.984h-82.976c-3.264 6.4-5.76 12.736-9.024 16l41.024 73.984zM512 435.04c-28.736 0-51.008-22.272-51.008-51.008 0-28.736 22.272-51.008 51.008-51.008 28.736 0 51.008 22.272 51.008 51.008 0 28.736-22.272 51.008-51.008 51.008z m-42.016-120.992L368 133.984c41.6-25.6 92.736-37.984 144-37.984 51.264 0 102.4 12.384 144 38.016l-102.016 180A90.56 90.56 0 0 0 512 304c-16 0-29.248 3.616-42.016 10.016v0.032z m32-74.016h20.032l40.96-74.016c-16-3.232-34.976-5.984-50.976-5.984s-35.008 2.752-51.008 6.016l40.992 73.984z"  horiz-adv-x="1024" />

    
    <glyph glyph-name="guanbitingzhicuowu" unicode="&#59421;" d="M512-32c229.76 0 416 186.24 416 416S741.76 800 512 800 96 613.76 96 384s186.24-416 416-416z m0 768c194.4 0 352-157.6 352-352s-157.6-352-352-352S160 189.6 160 384 317.6 736 512 736zM338.752 512L384 557.248l128-128 128 128L685.248 512l-128-128 128-128L640 210.752l-128 128-128-128L338.752 256l128 128-128 128z"  horiz-adv-x="1024" />

    
    <glyph glyph-name="hebing" unicode="&#59422;" d="M128 768h768v-352h-196v64H832V704H192v-224h132v-64H128V768z m384.48-115.2l140.8-140.8L608 466.752l-64 64V64h288v192h-132v64H896v-320H128V320h196v-64H192v-192h288V533.024l-64.96-62.272-44.288 46.208L512.48 652.8z"  horiz-adv-x="1024" />

    
    <glyph glyph-name="jinggaogantanhao" unicode="&#59423;" d="M512-32c229.76 0 416 186.24 416 416S741.76 800 512 800 96 613.76 96 384s186.24-416 416-416z m0 768c194.4 0 352-157.6 352-352s-157.6-352-352-352S160 189.6 160 384 317.6 736 512 736zM480 608v-256h64V608h-64zM480 256v-96h64v96h-64z"  horiz-adv-x="1024" />

    
    <glyph glyph-name="fangshefushe2" unicode="&#59424;" d="M293.12 771.552l-28.064-20.672a416 416 0 0 1-167.36-300.32L94.88 416h255.136l4.416 26.816a158.784 158.784 0 0 0 52.192 93.376l20.48 17.792-133.984 217.6v-0.032z m437.76 0l-133.952-217.536 20.48-17.824a158.688 158.688 0 0 0 52.16-93.376l4.48-26.816h255.072l-2.88 34.56a416.032 416.032 0 0 1-167.36 300.32l-28 20.672zM276.16 677.184l68.832-112.064A222.88 222.88 0 0 1 297.44 480H166.08a352.192 352.192 0 0 0 110.08 197.184z m471.712 0c57.344-51.872 96-121.152 110.08-197.184h-131.456a222.912 222.912 0 0 1-47.552 85.12l68.928 112.064zM512.032 512c-52.96 0-96-43.136-96-96.128A96.064 96.064 0 0 1 512 320c52.896 0 96 43.008 96 95.872A96.192 96.192 0 0 1 512 512z m0-64A32 32 0 1 0 512 384a32 32 0 0 0 0 64z m-84.96-169.824l-133.568-217.664 30.88-15.776A409.568 409.568 0 0 1 512 0c66.176 0 129.344 15.04 187.616 44.736l30.88 15.776-133.632 217.664-25.28-10.624c-36.576-15.36-82.656-15.36-119.2 0l-25.28 10.624z m26.88-78.624c38.08-10.016 78.08-10.016 116.16 0l68.8-112c-80.32-31.296-173.408-31.296-253.728 0l68.8 112z"  horiz-adv-x="1024" />

    
    <glyph glyph-name="jiantoushang" unicode="&#59425;" d="M749.248 288L512 525.248 274.752 288 320 242.752l192 192 192-192L749.248 288z"  horiz-adv-x="1024" />

    
    <glyph glyph-name="hebing2" unicode="&#59426;" d="M896 0H128V352h196v-64H192v-224h640v224h-132v64H896v-352z m-384.48 115.2l-140.8 140.8L416 301.248l64-64V704H192v-192h132v-64H128V768h768v-320h-196v64H832V704h-288v-469.024l64.96 62.272 44.288-46.208-141.728-135.808z"  horiz-adv-x="1024" />

    
    <glyph glyph-name="jiandaoshoushu1" unicode="&#59427;" d="M628.992 757.984c-24.736-2.976-46.72-20.48-53.984-45.984l-85.024-298.016-106.976-30.976C375.36 437.248 328.256 480 272 480A112.448 112.448 0 0 1 160 368C160 306.496 210.496 256 272 256c41.28 0 77.632 23.36 96.992 56.992l100 28-28-100C407.392 221.632 384 185.28 384 144c0-61.504 50.496-112 112-112s112 50.496 112 112c0 56.256-42.752 103.36-96.992 111.008l143.008 500.992a63.296 63.296 0 0 1-25.024 2.016v-0.032z m255.008-232l-279.008-78.976-20.992-72.992 256 72.96a63.936 63.936 0 0 1 44 79.04v-0.032zM272 416c26.88 0 48-21.12 48-48S298.88 320 272 320 224 341.12 224 368 245.12 416 272 416z m224-224c26.88 0 48-21.12 48-48s-21.12-48-48-48-48 21.12-48 48 21.12 48 48 48z"  horiz-adv-x="1024" />

    
    <glyph glyph-name="ka" unicode="&#59428;" d="M288 544h177.792v-64H288v64zM544 544h192v-192h-192v192z m64-64v-64h64v64h-64zM288 416h177.792v-64H288v64zM288 288h448v-64H288v64zM128 672h768v-576c-255.968 0-512.384 1.376-768 0 0.32 192 0 576 0 576z m64-512h640V608H192v-448z"  horiz-adv-x="1024" />

    
    <glyph glyph-name="jiangbei" unicode="&#59429;" d="M256 768h512v-64h128v-192a128 128 0 0 0-128-128h-1.984A256.128 256.128 0 0 0 544 161.984V64h224v-64H256v64h224v97.984A256.128 256.128 0 0 0 257.984 384H256a128 128 0 0 0-128 128V704h128V768z m0-128H192v-128a64 64 0 0 1 64-64V640z m64 64v-288a192 192 0 0 1 384 0V704H320z m448-64v-192a64 64 0 0 1 64 64V640h-64z"  horiz-adv-x="1024" />

    
    <glyph glyph-name="jingbaojinggaojingshiweixian2" unicode="&#59430;" d="M480 800v-96h64V800h-64zM169.376 649.376l64-64 45.248 45.248-64 64-45.248-45.248zM809.376 694.624l-64-64 45.248-45.248 64 64-45.248 45.248zM540.608 433.696l-57.248 28.608L396.224 288h128l-40.864-81.696 57.28-28.608L627.744 352h-128l40.832 81.696zM768 384v-320h96v-64H160v64h96V384a256 256 0 1 0 512 0z m-448 0v-320h384V384a192 192 0 0 1-384 0zM96 384h96v64H96v-64zM832 384h96v64h-96v-64z"  horiz-adv-x="1024" />

    
    <glyph glyph-name="ka2" unicode="&#59431;" d="M96 704h832v-640H96V704z m64-64v-128h704V640H160z m704-192H160v-320h704V448z m-64-224h-160v64h160v-64z"  horiz-adv-x="1024" />

    
    <glyph glyph-name="ka3" unicode="&#59432;" d="M736 416h-128v64h128v-64zM800 256h-192v64h192v-64zM455.872 362.56a112 112 0 1 1-175.776 0C228.352 335.488 192 284.928 192 224h64c0 49.6 46.496 96 112 96 65.504 0 112-46.4 112-96h64c0 60.928-36.32 111.456-88.128 138.56zM368 384a48 48 0 1 0 0 96 48 48 0 0 0 0-96zM64 736h896v-704H64V736z m64-64v-576h768V672H128z"  horiz-adv-x="1024" />

    
    <glyph glyph-name="jiandaoshoushu2" unicode="&#59433;" d="M421.504 519.776a160 160 0 1 1-45.248-45.248L466.72 384l-90.528-90.496a160 160 0 1 1 45.248-45.248l90.56 90.496 297.344-297.376 45.248 45.248L557.248 384l297.376 297.376-45.248 45.248L512 429.248l-90.496 90.528zM288 512a96 96 0 1 0 0 192 96 96 0 0 0 0-192z m0-448a96 96 0 1 0 0 192 96 96 0 0 0 0-192z"  horiz-adv-x="1024" />

    
    <glyph glyph-name="liebiao" unicode="&#59434;" d="M192 608v-64h96V608H192zM352 608h480v-64H352V608zM352 416h480v-64H352v64zM192 416v-64h96v64H192zM352 224h480v-64H352v64zM192 224v-64h96v64H192z"  horiz-adv-x="1024" />

    
    <glyph glyph-name="huatongyuyinjinzhi" unicode="&#59435;" d="M672.864 431.68v123.104l-66.24-64.96v-58.112c-0.064-43.36-36.576-78.72-81.888-78.656a84.64 84.64 0 0 0-45.312 12.8l-47.04-47.008a152.928 152.928 0 0 1 92.352-30.752c81.728 0 148.128 64.192 148.128 143.616z m142.976 330.56L777.92 798.08a7.04 7.04 0 0 1-9.76-0.064L655.776 687.68c-24.48 46.432-74.4 78.24-131.904 78.24C442.048 765.952 384 702.72 384 623.488V432c0-5.728 0.32-11.36 1.056-16.928l-67.52-59.296a212.096 212.096 0 0 0-14.08 76.8 7.168 7.168 0 0 1-7.008 6.816H244.192a6.912 6.912 0 0 1-6.976-6.848c0-45.28 10.88-88.032 30.144-125.984l-119.36-117.12a6.752 6.752 0 0 1 0-9.664l37.216-36.48a7.104 7.104 0 0 1 9.824 0L815.904 752.416l0.096 0.064a6.784 6.784 0 0 1-0.16 9.76z m-365.632-283.2V623.456c0 43.264 28.256 77.504 73.664 77.504 40.064 0 73.28-27.616 80.416-63.872l-154.08-158.08zM804.416 439.392h-52.288a6.944 6.944 0 0 1-6.976-6.848c0-119.936-99.04-217.12-221.28-217.12a222.656 222.656 0 0 0-143.776 52.16l-47.04-46.176a293.6 293.6 0 0 1 155.968-69.248V64h-151.04v-64h384v64H555.2v88.16c144 15.296 256.16 134.976 256.16 280.384a6.912 6.912 0 0 1-6.976 6.848z"  horiz-adv-x="1024" />

    
    <glyph glyph-name="menzhen" unicode="&#59436;" d="M480 416v128h64v-128h128v-64h-128v-128h-64v128h-112v64H480zM96 384L512 800l416-416-416-416L96 384z m90.496 0L512 58.496 837.504 384 512 709.504 186.496 384z"  horiz-adv-x="1024" />

    
    <glyph glyph-name="mima" unicode="&#59437;" d="M480 256h-32v128h128v-128h-32v-128h-64v128zM704 588V512h128v-512H192V512h128V588A180 180 0 0 0 500 768h24A180 180 0 0 0 704 588z m-286.016 82.016A115.2 115.2 0 0 1 384 587.968V512h256V588a115.2 115.2 0 0 1-34.016 82.016A115.2 115.2 0 0 1 524 704h-24a115.2 115.2 0 0 1-82.016-34.016zM256 64h512V448H256v-384z"  horiz-adv-x="1024" />

    
    <glyph glyph-name="jiaohuan2" unicode="&#59438;" d="M327.68 724.8l-192-224A32 32 0 0 1 160 448h736v64H229.568l146.72 171.2-48.576 41.6zM696.32 43.2l192 224A32 32 0 0 1 864 320H128v-64h666.432l-146.72-171.2 48.576-41.6z"  horiz-adv-x="1024" />

    
    <glyph glyph-name="ku" unicode="&#59439;" d="M384 464a48 48 0 1 0-96 0 48 48 0 0 0 96 0zM688 416a48 48 0 1 1 0 96 48 48 0 0 1 0-96zM384 192c17.664 0 31.488 14.72 37.248 31.424a96.032 96.032 0 0 0 181.504 0c5.76-16.704 19.584-31.424 37.248-31.424 17.664 0 32.32 14.464 28.832 31.808a160.064 160.064 0 0 1-313.664 0c-3.52-17.344 11.168-31.808 28.832-31.808zM512-32c229.76 0 416 186.24 416 416S741.76 800 512 800 96 613.76 96 384s186.24-416 416-416z m0 768c194.4 0 352-157.6 352-352s-157.6-352-352-352S160 189.6 160 384 317.6 736 512 736z"  horiz-adv-x="1024" />

    
    <glyph glyph-name="lishi" unicode="&#59440;" d="M507.2 704C687.04 704 832 560.32 832 384s-144.992-320-324.8-320c-153.824 0-282.336 105.312-316.064 246.208l-62.272-14.88C169.504 125.728 323.648 0 507.232 0 721.536 0 896 171.52 896 384S721.536 768 507.2 768C377.6 768 262.688 705.28 192 608.8V736H128v-224h224v64H247.36c59.264 77.696 153.536 128 259.84 128zM544 404.832V608h-64v-236.832l192-119.424 36.256 52.736L544 404.832z"  horiz-adv-x="1024" />

    
    <glyph glyph-name="lianjie2" unicode="&#59441;" d="M586.176 661.824a144 144 0 0 0 203.648-203.648l-115.552-115.52 45.248-45.28 115.552 115.52a208 208 0 0 1-294.144 294.176l-115.552-115.52 45.248-45.28 115.552 115.552zM617.376 534.624l-240-240 45.248-45.248 240 240-45.248 45.248zM234.176 106.176a144 144 0 0 0 0 203.648l108.48 108.48-45.28 45.216-108.48-108.448a208 208 0 0 1 294.176-294.144l131.552 131.52-45.248 45.28-131.552-131.552a144 144 0 0 0-203.648 0z"  horiz-adv-x="1024" />

    
    <glyph glyph-name="jiantouyou" unicode="&#59442;" d="M416 621.248L653.248 384 416 146.752 370.752 192l192 192-192 192L416 621.248z"  horiz-adv-x="1024" />

    
    <glyph glyph-name="nixuanzhuang" unicode="&#59443;" d="M512 800l-160-128 160-128V638.56C691.424 622.4 832 471.616 832 288h64c0 218.976-169.216 398.432-384 414.784V800zM128 480h576v-480H128V480z m64-64v-352h448V416H192z"  horiz-adv-x="1024" />

    
    <glyph glyph-name="lianjie" unicode="&#59444;" d="M526.624 704.64a216.384 216.384 0 0 0 306.016-306.016l-18.624-18.624a32 32 0 1 0-45.28 45.248l18.624 18.624a152.384 152.384 0 1 1-215.488 215.488l-139.84-139.84a112.64 112.64 0 0 1 0-159.264l46.72-46.752a32 32 0 1 0-45.248-45.248l-46.72 46.72a176.64 176.64 0 0 0 0 249.792l139.84 139.84z m18.624-204.896a32 32 0 0 0 45.248 0l46.72-46.72a176.64 176.64 0 0 0 0-249.792l-139.84-139.84a216.384 216.384 0 1 0-306.016 305.984l18.624 18.624a32 32 0 1 0 45.28-45.248l-18.624-18.624a152.384 152.384 0 1 1 215.488-215.488l139.84 139.84a112.64 112.64 0 0 1 0 159.264l-46.72 46.752a32 32 0 0 0 0 45.248z"  horiz-adv-x="1024" />

    
    <glyph glyph-name="qian4" unicode="&#59445;" d="M160 384C160 578.4 317.6 736 512 736c116.544 0 219.904-56.64 284-144L736 544l160-32V672l-49.984-40A415.424 415.424 0 0 1 512 800C282.24 800 96 613.76 96 384h64zM864 384c0-194.4-157.6-352-352-352-116.576 0-219.904 56.64-284 144L288 224l-160 32v-160l49.984 40A415.424 415.424 0 0 1 512-32c229.76 0 416 186.24 416 416h-64zM576 592l64-32-50.752-80H672v-64h-128v-64h128v-64h-128v-128h-64v128h-128v64h128v64h-128v64h82.752L384 560l64 32 64-98.752L576 592z"  horiz-adv-x="1024" />

    
    <glyph glyph-name="quanping" unicode="&#59446;" d="M128 768h256v-64H192v-192H128V768z m512 0h256v-256h-64V658.752l-192-192L594.752 512l192 192H640V768zM192 109.248l224 224L461.248 288l-224-224H384v-64H128v256h64v-146.752zM896 256v-256h-256v64h192v192h64z"  horiz-adv-x="1024" />

    
    <glyph glyph-name="quanpingchuangkou" unicode="&#59447;" d="M768 640v-512H256V640h512z m-64-64H320v-384h384V576z"  horiz-adv-x="1024" />

    
    <glyph glyph-name="qian2" unicode="&#59448;" d="M640 592l-64 32-64-98.752L448 624l-64-32 50.752-80H352v-64h128v-64h-128v-64h128v-128h64v128h128v64h-128v64h128v64h-82.752L640 592zM864 693.664l-352 140.8-352-140.8v-485.056l352-281.6 352 281.6V693.664zM224 239.392V650.336l288 115.2 288-115.2v-410.944l-288-230.4-288 230.4z"  horiz-adv-x="1024" />

    
    <glyph glyph-name="nao" unicode="&#59449;" d="M416 768c-61.12 0-110.624-44.384-123.008-102.016C218.368 652.672 160 590.4 160 512c0-7.872 0.864-14.88 2.016-22.016C141.376 459.648 128 423.904 128 384c0-57.504 28.64-105.888 68.992-140.992-2.88-11.392-4.992-22.752-4.992-35.008 0-79.136 64.864-144 144-144h2.016c18.624-36.128 50.88-64 93.984-64a111.68 111.68 0 0 1 80 34.016A111.648 111.648 0 0 1 592 0c43.136 0 75.36 27.872 94.016 64h1.984c75.136 0 136.736 58.496 143.008 132H832c0 2.016-0.864 4-0.992 6.016 0.128 1.984 0.992 4 0.992 5.984 0 11.872-4.256 22.016-7.008 32.992C866.496 276.256 896 325.472 896 384c0 39.872-13.376 75.616-34.016 106.016 1.152 7.104 2.016 14.08 2.016 21.984 0 78.4-58.368 140.64-132.992 154.016C718.624 723.584 669.12 768 608 768c-38.4 0-72.512-17.888-96-44.992C488.512 750.08 454.4 768 416 768z m0-64c35.744 0 64-28.256 64-64v-64c0-53.376-42.624-96-96-96v-64c36.256 0 69.12 12.48 96 32.992V112c0-26.88-21.12-48-48-48a47.04 47.04 0 0 0-47.008 39.008l-5.984 30.976-31.008-4.992A79.584 79.584 0 0 0 256 208c0 9.888 1.6 19.136 4.992 28 0.256 0.736 0.768 1.28 0.992 2.016a78.976 78.976 0 0 0 58.016 48l-12.992 62.976A142.464 142.464 0 0 1 224 299.008 126.656 126.656 0 0 0 192 384a124.8 124.8 0 0 0 28 79.008l10.016 12-3.008 16A91.456 91.456 0 0 0 224 512c0 53.376 42.624 96 96 96h32V640c0 35.744 28.256 64 64 64z m192 0c35.744 0 64-28.256 64-64v-32h32c53.376 0 96-42.624 96-96 0-6.88-1.28-13.504-3.008-20.992l-2.976-16 9.984-12A124.8 124.8 0 0 0 832 384c0-38.4-16.384-72.64-43.008-96-21.856 19.36-49.728 32-80.992 32-30.24 0-57.504-10.752-79.008-28.992l41.024-49.024c10.56 9.088 24.064 14.08 37.984 14.016 30.88 0 55.488-23.136 59.008-52.992C764.384 160.864 730.752 128 688 128c-2.88 0-6.4 0.128-12 0.992l-31.008 5.024-5.984-31.04A47.04 47.04 0 0 0 592 64c-26.88 0-48 21.12-48 48V448.992A157.28 157.28 0 0 1 640 416v64c-53.376 0-96 42.624-96 96V640c0 35.744 28.256 64 64 64z"  horiz-adv-x="1024" />

    
    <glyph glyph-name="moban" unicode="&#59450;" d="M896 768H128v-768h768V768zM192 704h640v-192H192V704z m0-256h384v-384H192V448z m448-384V448h192v-384h-192z"  horiz-adv-x="1024" />

    
    <glyph glyph-name="ren2" unicode="&#59451;" d="M672 480c0-88.384-71.616-160-160-160s-160 71.616-160 160 71.616 160 160 160 160-71.616 160-160z m-64 0c0 52.896-43.104 96-96 96s-96-43.104-96-96 43.104-96 96-96 96 43.104 96 96zM512-32c229.76 0 416 186.24 416 416S741.76 800 512 800 96 613.76 96 384s186.24-416 416-416z m0 64a351.04 351.04 0 0 0-256.768 111.232A446.816 446.816 0 0 0 512 224a446.88 446.88 0 0 0 256.768-80.768A351.04 351.04 0 0 0 512 32z m0 256a509.44 509.44 0 0 1-296.16-94.336A350.368 350.368 0 0 0 160 384C160 578.4 317.6 736 512 736s352-157.6 352-352c0-70.08-20.48-135.392-55.808-190.24A510.176 510.176 0 0 1 512 288z"  horiz-adv-x="1024" />

    
    <glyph glyph-name="qian3" unicode="&#59452;" d="M640 592l-64 32-64-98.752L448 624l-64-32 50.752-80H352v-64h128v-64h-128v-64h128v-128h64v128h128v64h-128v64h128v64h-82.752L640 592zM832 768H192v-540.224l-49.696 24.832-28.608-57.216L512-3.776l398.304 199.168-28.608 57.216-49.696-24.832V768zM512 67.776l-256 128V704h512v-508.224l-256-128z"  horiz-adv-x="1024" />

    
    <glyph glyph-name="renhuanrao" unicode="&#59453;" d="M512 768c-70.4 0-128-57.6-128-128 0-35.616 15.264-67.744 39.008-91.008A161.152 161.152 0 0 1 352 416v-148l64-32V96h192v140l64 32V416a161.184 161.184 0 0 1-71.008 132.992C624.736 572.256 640 604.352 640 640c0 70.4-57.6 128-128 128z m0-64c35.744 0 64-28.256 64-64s-28.256-64-64-64-64 28.256-64 64 28.256 64 64 64z m0-192c53.376 0 96-42.624 96-96v-108l-64-32V160h-64v116l-64 32V416c0 53.376 42.624 96 96 96z m-224-220c-93.376-26.112-160-70.4-160-132 0-104.992 193.12-160 384-160s384 55.008 384 160c0 61.632-66.624 105.888-160 132v-67.008c60.864-19.616 96-44.992 96-64.992 0-38.24-127.616-96-320-96-192.384 0-320 57.76-320 96 0 20 35.136 45.376 96 64.992v67.008z"  horiz-adv-x="1024" />

    
    <glyph glyph-name="jinggao2" unicode="&#59454;" d="M480 352V672h64v-320h-64z m0-224v128h64v-128h-64z"  horiz-adv-x="1024" />

    
    <glyph glyph-name="qushitu" unicode="&#59455;" d="M896 608l-57.376 57.376L576 402.752l-128 128L128 208v96l320 317.248 128-128 217.376 217.376L736 768h160v-160zM544 64h128v288l64 64v-352h96V512l64-64v-448H128v64l64 64v-64h96v160l64 64v-224h128v288l64-64v-224z"  horiz-adv-x="1024" />

    
    <glyph glyph-name="renjiaohuan" unicode="&#59456;" d="M639.84 360.064a224 224 0 1 1-255.712 0C252.928 308.864 160 181.312 160 32h64a288 288 0 0 0 288 288c48 0 96 16 127.84 40.064zM672 544a160 160 0 1 0-320 0 160 160 0 0 0 320 0zM672 320l-160-160h320v64h-160v96zM544 32v64h320l-160-160v96h-160z"  horiz-adv-x="1024" />

    
    <glyph glyph-name="renquanshen" unicode="&#59457;" d="M736 448v64H288v-64h160v-87.488l-123.776-216.64 55.552-31.744L498.56 320h26.88l118.784-207.872 55.552 31.744L576 360.512V448h160zM512 544a64 64 0 1 1 0 128 64 64 0 0 1 0-128zM512-64a448 448 0 1 0 448 448 448.512 448.512 0 0 0-448-448z m0 832a384 384 0 1 1 384-384A384.448 384.448 0 0 1 512 768z"  horiz-adv-x="1024" />

    
    <glyph glyph-name="ren1" unicode="&#59458;" d="M512 768a192 192 0 1 1 0-384 192 192 0 0 1 0 384z m-128-192a128 128 0 1 0 256 0 128 128 0 0 0-256 0zM288 320a160 160 0 0 1-160-160v-160h768v160a160 160 0 0 1-160 160H288z m-96-160a96 96 0 0 0 96 96h448a96 96 0 0 0 96-96v-96H192v96z"  horiz-adv-x="1024" />

    
    <glyph glyph-name="qian5" unicode="&#59459;" d="M640 560l-64 32-64-98.752L448 592l-64-32 50.752-80H352v-64h128v-64h-128v-64h128v-128h64v128h128v64h-128v64h128v64h-82.752L640 560zM512-32c229.76 0 416 186.24 416 416S741.76 800 512 800 96 613.76 96 384s186.24-416 416-416z m0 768c194.4 0 352-157.6 352-352s-157.6-352-352-352S160 189.6 160 384 317.6 736 512 736z"  horiz-adv-x="1024" />

    
    <glyph glyph-name="renjianshaoshanchu" unicode="&#59460;" d="M736 544a223.744 223.744 0 0 0-96.16-183.936c30.016-11.712 58.016-27.424 83.392-46.464l-38.464-51.168A286.592 286.592 0 0 1 512 320a288 288 0 0 1-288-288H160c0 149.312 92.96 276.896 224.128 328.064A224 224 0 1 0 736 544z m-224-160a160 160 0 1 1 0 320 160 160 0 0 1 0-320zM640 64h224v64h-224v-64z"  horiz-adv-x="1024" />

    
    <glyph glyph-name="qian2-1" unicode="&#59461;" d="M416 621.248l96-96 96 96L653.248 576l-64-64H672v-64h-128v-64h128v-64h-128v-96h-64v96h-128v64h128v64h-128v64h82.752l-64 64L416 621.248zM224 768h576v-128h128v-558.176l-128 48V0l-288 96-288-96v129.824l-128-48V640h128V768z m576-569.824l64-24V576h-64v-377.824zM224 576H160v-401.824l64 24V576z m64 128v-608l224 64 224-64V704H288z"  horiz-adv-x="1024" />

    
    <glyph glyph-name="qian3-1" unicode="&#59462;" d="M416 493.248L352 608l-48-48L352 480H288v-64h96v-64H288v-64h96v-96h64v96h96v64h-96v64h96v64h-64l48 80L480 608l-64-114.752zM736 544h-128v-64h128v64zM736 416h-128v-64h128v64zM608 288h128v-64h-128v64zM896 768H128v-768h768V768zM192 64V704h640v-640H192z"  horiz-adv-x="1024" />

    
    <glyph glyph-name="qian" unicode="&#59463;" d="M128 768h768v-768H128V768z m64-64v-640h640V704H192z m192-50.752l128-128 128 128L685.248 608l-96-96H704v-64h-160v-96h160v-64h-160v-160h-64v160h-160v64h160v96h-160v64h114.752l-96 96L384 653.248z"  horiz-adv-x="1024" />

    
    <glyph glyph-name="renguaigun" unicode="&#59464;" d="M528 768A112.448 112.448 0 0 1 416 656c0-61.504 50.496-112 112-112S640 594.496 640 656 589.504 768 528 768z m0-64c26.88 0 48-21.12 48-48S554.88 608 528 608 480 629.12 480 656 501.12 704 528 704z m-172.992-144a119.584 119.584 0 0 1-24.992-0.992 97.44 97.44 0 0 1-47.04-22.016c-27.968-23.744-44.224-61.504-56-116.992-3.712-17.888-2.592-36.384 6.016-51.008 8.64-14.624 22.144-23.488 34.016-28.992 23.872-11.008 47.232-13.12 60-16l15.008 62.016c-19.264 4.352-39.04 7.872-48 11.968-4.512 2.144-5.12 3.392-5.024 3.008a12.576 12.576 0 0 0 0 6.016c10.24 48.48 25.12 71.872 36 80.992 10.88 9.12 19.872 10.624 40 6.016l14.016 62.976a138.304 138.304 0 0 1-24 3.008z m56-10.016L364 336c-5.248-24 4.64-50.016 24-64.992l112.992-88 28-183.008h65.024l-30.016 192.992a64.16 64.16 0 0 1-24 41.024l-112.992 88 32.992 148.992 32.992-8.992 56.992-55.04c18.528-17.856 46.4-22.08 70.016-11.968L672 416.96V0h64V544h-64v-58.016l-76.992-32.96-57.024 54.976a63.648 63.648 0 0 1-28 16l-98.976 25.984z m-42.016-313.984l-27.008-80.992L262.016 0h72l65.024 124.992c1.6 3.136 3.008 6.752 4 10.016l20 58.976-54.048 42.016z"  horiz-adv-x="1024" />

    
    <glyph glyph-name="rizhi" unicode="&#59465;" d="M288 416v-64h448v64H288zM288 256v-64h288v64H288zM384 768h-64v-96H128v-672h768V672h-192V768h-64v-96h-256V768z m448-160v-544H192V608h128v-96h64V608h256v-96h64V608h128z"  horiz-adv-x="1024" />

    
    <glyph glyph-name="renyisheng2" unicode="&#59466;" d="M324.992 768L320 741.984l-32-180V448h3.008a225.024 225.024 0 0 1 96-154.016C272.864 245.024 192 131.744 192 0h64a255.616 255.616 0 0 0 96 200v-20.992l8.992-10.016 128-128 23.008-21.984 23.008 21.984 128 128 8.992 10.016v20.992A255.648 255.648 0 0 0 768 0h64c0 131.744-80.864 244.992-195.008 294.016a224.992 224.992 0 0 1 96 153.984H736v114.016l-32 179.968L699.008 768H324.992z m54.016-64h265.984L672 551.008V512H352v39.008L379.008 704zM480 672v-32h-32v-64h32v-32h64v32h32V640h-32V672h-64z m-124.992-224h313.984A160.032 160.032 0 0 0 512 320a160.032 160.032 0 0 0-156.992 128zM512 256a257.568 257.568 0 0 0 96-18.016v-32l-96-96-96 96v32A257.568 257.568 0 0 0 512 256z"  horiz-adv-x="1024" />

    
    <glyph glyph-name="rili" unicode="&#59467;" d="M288 320v-64h160v64H288zM576 320h160v-64h-160v64zM288 192h160v-64H288v64zM576 192v-64h160v64h-160zM320 768h64v-96h256V768h64v-96h192v-672H128V672h192V768zM192 384v-320h640V384H192z m640 64V608h-128v-96h-64V608h-256v-96h-64V608H192v-160h640z"  horiz-adv-x="1024" />

    
    <glyph glyph-name="renzheng1" unicode="&#59468;" d="M512 834.464l-352-140.8v-485.056l352-281.6 352 281.6V693.664l-352 140.8zM224 650.336l288 115.2 288-115.2v-410.944l-288-230.4-288 230.4V650.336z m474.368-124.48l-197.792-287.68-155.2 155.2 45.248 45.248 100.8-100.8 154.208 224.32 52.736-36.256z"  horiz-adv-x="1024" />

    
    <glyph glyph-name="shangchuan" unicode="&#59469;" d="M512 768a224 224 0 0 1-224-224v-0.704A176 176 0 0 1 304 192H352v64H304a112 112 0 1 0 0 224H352v64a160 160 0 0 0 320 0v-64h48a112 112 0 1 0 0-224H672v-64h48a176 176 0 0 1 16 351.296V544a224 224 0 0 1-224 224zM370.752 338.752L416 293.504l64 64V0h64V357.504l64-64 45.248 45.248L512 480l-141.248-141.248z"  horiz-adv-x="1024" />

    
    <glyph glyph-name="sanjiaozuo" unicode="&#59470;" d="M562.976 230.144c17.696-14.08 45.024-2.4 45.024 19.2v269.312c0 21.6-27.328 33.28-45.024 19.2L393.536 403.2a24.096 24.096 0 0 1 0-38.4l169.44-134.656z"  horiz-adv-x="1024" />

    
    <glyph glyph-name="renzou" unicode="&#59471;" d="M528 768A112.448 112.448 0 0 1 416 656c0-61.504 50.496-112 112-112S640 594.496 640 656 589.504 768 528 768z m0-64c26.88 0 48-21.12 48-48S554.88 608 528 608 480 629.12 480 656 501.12 704 528 704z m-118.016-168c-16.48-1.376-31.872-9.28-42.976-22.016L308.992 447.04a64.32 64.32 0 0 1-15.008-31.008L272 292l63.008-11.008 21.984 124 58.016 67.008H416l24.992-4.992-37.984-172a63.488 63.488 0 0 1 11.008-51.008L590.976 0h79.04l-204 282.016 37.984 172.992 15.008-3.008 24-84a64.32 64.32 0 0 1 38.976-42.016l113.024-42.976 21.984 60-112 42.976-24.992 84.032a63.264 63.264 0 0 1-48.992 44.992l-104 20a64.96 64.96 0 0 1-16.992 0.992h-0.032z m-10.976-344.992l-16-62.016L290.016 0h78.976l74.016 100.992 4 19.008-48 71.008z"  horiz-adv-x="1024" />

    
    <glyph glyph-name="renlunyi" unicode="&#59472;" d="M640 800c-52.64 0-96-43.36-96-96s43.36-96 96-96 96 43.36 96 96-43.36 96-96 96z m0-64c18.016 0 32-14.016 32-32 0-18.016-14.016-32-32-32-18.016 0-32 14.016-32 32 0 18.016 14.016 32 32 32z m-175.008-88.992l-115.008-13.024a63.04 63.04 0 0 1-45.984-28.992L224 480.992l54.016-33.984 80 123.008 72.96 8L384 444.96c-108.256-15.616-192-108.48-192-220.992 0-123.36 100.64-224 224-224s224 100.64 224 224c0 10.88-1.504 21.504-3.008 32h41.024l42.976-195.008 62.016 14.016-42.016 194.976C734.624 299.264 707.872 320 678.016 320h-60a224.16 224.16 0 0 1-53.024 70.016l37.024 102.976a96.096 96.096 0 0 1-45.024 116.992L503.04 640v-0.992c-11.52 6.112-25.12 9.504-38.016 8h-0.032z m32-77.024l30.016-16c14.24-7.616 20.48-23.872 14.976-38.976l-32-88a219.776 219.776 0 0 1-58.976 17.984l45.984 124.992zM416 384c88.736 0 160-71.264 160-160s-71.264-160-160-160-160 71.264-160 160 71.264 160 160 160z"  horiz-adv-x="1024" />

    
    <glyph glyph-name="shaixuan" unicode="&#59473;" d="M88.736 704h846.528L640 371.84V-59.84l-256 170.688V371.84L88.736 704z m142.528-64L448 396.16v-251.04l128-85.312V396.16L792.736 640H231.264z"  horiz-adv-x="1024" />

    
    <glyph glyph-name="ren3" unicode="&#59474;" d="M639.872 360.064a224 224 0 1 1-255.744 0C252.928 308.864 160 181.312 160 32h64a288 288 0 1 0 576 0h64c0 149.312-92.96 276.896-224.128 328.064zM672 544a160 160 0 1 0-320 0 160 160 0 0 0 320 0z"  horiz-adv-x="1024" />

    
    <glyph glyph-name="sanjiaoxia" unicode="&#59475;" d="M358.144 434.976c-14.08 17.696-2.4 45.024 19.2 45.024h269.312c21.6 0 33.28-27.328 19.2-45.024L531.2 265.536a24.096 24.096 0 0 0-38.4 0l-134.656 169.44z"  horiz-adv-x="1024" />

    
    <glyph glyph-name="renyisheng1" unicode="&#59476;" d="M640 128h96v64h-96v-64zM320 768h384v-352c0-24.64-4.64-48.192-13.088-69.824 99.2-23.04 173.088-112 173.088-218.176v-128H160v128a224.096 224.096 0 0 0 173.088 218.176A191.52 191.52 0 0 0 320 416V768z m289.056-435.456l5.76 7.2c15.808 21.312 25.184 47.68 25.184 76.256v96h-256v-96c0-28.576 9.376-54.944 25.184-76.256l5.76-7.2A127.712 127.712 0 0 1 512 288c38.816 0 73.6 17.28 97.056 44.544zM512 224c-3.52 0-6.976 0.096-10.432 0.288L512 211.2l10.432 13.056A194.912 194.912 0 0 0 512 224zM384 704v-128h96V608h-64V672h64V704h-96z m160 0v-32h64v-64h-64v-32h96V704h-96z m-174.848-416.672A160 160 0 0 1 224 128v-64h256v84.8l-110.848 138.528zM544 148.768V64h256v64a160 160 0 0 1-145.152 159.328L544 148.768z"  horiz-adv-x="1024" />

    
    <glyph glyph-name="renxinzengjia" unicode="&#59477;" d="M864 128h-64v64h-64v-64h-64v-64h64v-64h64v64h64v64zM795.04 421.28c0 101.952-79.744 184.8-178.656 186.4-100.544 1.6-184.288-83.136-184.288-186.4 0-58.56 26.336-110.72 67.328-144.96a273.088 273.088 0 0 1-78.4-56.288 280.832 280.832 0 0 1-79.648-190.016l65.344-0.48a213.44 213.44 0 0 0 60.48 143.072 202.752 202.752 0 0 0 146.368 62.272c100.16 0 181.472 83.392 181.472 186.4z m-181.44-119.296c-31.04 0-60.16 12.384-82.144 34.944a120.32 120.32 0 0 0-34.016 85.568 121.152 121.152 0 0 0 32.96 82.016 114.24 114.24 0 0 0 81.984 36.064 115.2 115.2 0 0 0 82.56-34.112 120 120 0 0 0 34.88-85.184 120.576 120.576 0 0 0-34.144-84.352 113.792 113.792 0 0 0-82.112-34.944zM386.304 396.672a243.456 243.456 0 0 0 2.624 67.936 7.552 7.552 0 0 1-4.096 8.192 114.528 114.528 0 0 0-33.472 23.392 120.544 120.544 0 0 0-35.104 88.928 120.32 120.32 0 0 0 32.928 79.776 114.016 114.016 0 0 0 162.56 4c7.2-6.88 13.376-14.528 18.56-22.72l64.32 19.36C565.12 725.472 504.864 766.848 435.2 768c-100.544 1.6-184.384-83.136-184.384-186.4 0-58.528 26.24-110.72 67.328-144.928a272.768 272.768 0 0 1-78.496-56.288A280.896 280.896 0 0 1 160 190.24l65.408-0.48a213.44 213.44 0 0 0 60.544 143.04 203.584 203.584 0 0 0 94.976 55.68 7.616 7.616 0 0 1 5.376 8.192z"  horiz-adv-x="1024" />

    
    <glyph glyph-name="shouqizhedie2" unicode="&#59478;" d="M96 672h832V736H96v-64zM400 448H928v64H400v-64zM400 256H928v64H400v-64zM96 96v-64h832v64H96zM96 384l160 128v-256l-160 128z"  horiz-adv-x="1024" />

    
    <glyph glyph-name="shijian" unicode="&#59479;" d="M544 392.544V576h-64v-221.856l176.96-94.4 30.08 56.48L544 392.544zM832 384c0-176.736-143.264-320-320-320S192 207.264 192 384 335.264 704 512 704s320-143.264 320-320z m-64 0a256 256 0 1 1-512 0 256 256 0 0 1 512 0z"  horiz-adv-x="1024" />

    
    <glyph glyph-name="shiguanhuayanjianyan" unicode="&#59480;" d="M544 896c-17.6 0-32-14.4-32-32s14.4-32 32-32 32 14.4 32 32-14.4 32-32 32z m-96-96c-17.6 0-32-14.4-32-32h-96v-64h32v-244.992l-196.992-254.016A127.264 127.264 0 0 1 128 127.04 127.36 127.36 0 0 1 255.008 0H768.96A127.36 127.36 0 0 1 896 127.008c0 28.256-9.6 55.616-27.008 77.984L672 459.008V704h32V768h-224c0 17.6-14.4 32-32 32z m-32-96h192v-267.008L699.008 320H324.992L416 436.992V704z m128-128c-17.6 0-32-14.4-32-32s14.4-32 32-32 32 14.4 32 32-14.4 32-32 32zM275.008 256h473.984l70.016-90.016c8.64-11.104 12.992-24.96 12.992-38.976A62.24 62.24 0 0 0 768.992 64H255.04A62.272 62.272 0 0 0 192 127.008c0 13.984 4.384 27.84 12.992 38.976L275.008 256z"  horiz-adv-x="1024" />

    
    <glyph glyph-name="shalou" unicode="&#59481;" d="M405.824 384A191.808 191.808 0 0 0 320 544V704H224V768h576v-64h-96v-160a191.808 191.808 0 0 0-85.824-160A191.808 191.808 0 0 0 704 224v-160h96v-64H224v64h96v160a191.808 191.808 0 0 0 85.824 160z m106.08 32H512a128 128 0 0 1 128 128V704h-256v-160a128 128 0 0 1 127.904-128z m0-64A128 128 0 0 1 384 224v-160h256v160a128 128 0 0 1-128 128h-0.096z"  horiz-adv-x="1024" />

    
    <glyph glyph-name="shoucang" unicode="&#59482;" d="M512 244.96l131.968-66.336-25.12 139.968 103.104 96.064-142.816 19.84L512 564.512l-67.136-130.016-142.816-19.84 103.104-96.064-25.12-139.936L512 244.928zM294.464 64l41.536 231.552L160 459.552l243.2 33.76L512 704l108.8-210.688 243.2-33.76-176-164L729.536 64 512 173.312 294.464 64z"  horiz-adv-x="1024" />

    
    <glyph glyph-name="sanjiaoshang" unicode="&#59483;" d="M358.144 333.024c-14.08-17.696-2.4-45.024 19.2-45.024h269.312c21.6 0 33.28 27.328 19.2 45.024L531.2 502.464a24.096 24.096 0 0 1-38.4 0l-134.656-169.44z"  horiz-adv-x="1024" />

    
    <glyph glyph-name="shezhi2" unicode="&#59484;" d="M672 768c-123.36 0-224-100.64-224-224 0-22.88 6.88-43.616 13.248-64.512l-303.008-302.976a103.808 103.808 0 0 1 0-146.4 103.904 103.904 0 0 1 146.24 0l303.04 303.04c20.736-6.4 41.6-13.152 64.48-13.152 123.36 0 224 100.64 224 224 0 32.864-7.264 64-20 92l-19.008 42.24-32.64-32.736L722.784 544H672V594.752l134.24 134.24-42.24 19.008A221.44 221.44 0 0 1 672 768z m0-64c5.504 0 10.112-2.752 15.488-3.264L608 621.248V480h141.248l79.36 79.488c0.64-5.376 3.392-9.984 3.392-15.488 0-88.736-71.264-160-160-160a160.32 160.32 0 0 0-63.008 12.864l-19.84 8.512L259.2 75.488a39.264 39.264 0 0 0-55.744 0 39.36 39.36 0 0 0 0 55.872l329.92 329.76-8.512 20A159.712 159.712 0 0 0 512 544c0 88.736 71.264 160 160 160z"  horiz-adv-x="1024" />

    
    <glyph glyph-name="shengyin" unicode="&#59485;" d="M544 764.704v-761.408L320 160H128V608h192l224 156.704zM480 640l-128-96H192v-320h160l128-96V640zM693.056 683.904l27.424-16.48C824.96 604.704 896 502.4 896 384c0-118.4-71.072-220.672-175.52-283.424l-27.424-16.48-32.96 54.848 27.424 16.48C777.408 209.44 832 293.024 832 384c0 90.944-54.592 174.56-144.48 228.576l-27.424 16.48 32.96 54.848zM666.368 539.872l-27.872 15.712-31.424-55.744 27.872-15.712C679.872 458.848 704 421.568 704 384s-24.128-74.816-69.056-100.128l-27.84-15.68 31.36-55.776 27.904 15.68C725.12 261.248 768 316.928 768 384s-42.88 122.784-101.632 155.872z"  horiz-adv-x="1024" />

    
    <glyph glyph-name="shu" unicode="&#59486;" d="M224 480h160v64H224v-64zM224 320h160v64H224v-64zM640 480h160v64h-160v-64zM640 320h160v64h-160v-64zM352 736H64v-640h288c15.744 0 42.88-2.816 70.016-11.328 27.52-8.64 50.912-21.92 64.384-39.872l25.6-34.144 25.6 34.144c13.44 17.952 36.832 31.2 64.384 39.872A250.72 250.72 0 0 0 672 96h288V736h-288c-37.376 0-98.432-16.32-160-79.616C450.432 719.68 389.376 736 352 736z m0-64c20.672 0 72.256-10.144 128-75.52v-466.464a249.92 249.92 0 0 1-38.816 15.712A314.24 314.24 0 0 1 352 160H128V672h224z m230.816-526.272a249.92 249.92 0 0 1-38.816-15.712V596.48C599.744 661.856 651.328 672 672 672h224v-512h-224a314.24 314.24 0 0 1-89.184-14.272z"  horiz-adv-x="1024" />

    
    <glyph glyph-name="tupian" unicode="&#59487;" d="M384 384a128 128 0 1 1 0 256 128 128 0 0 1 0-256z m0 64a64 64 0 1 0 0 128 64 64 0 0 0 0-128zM896 768H128v-768h768V768z m-64-64v-480l-224 166.4-416-277.28V704h640z m0-560V64H233.696l373.216 248.832L832 144z"  horiz-adv-x="1024" />

    
    <glyph glyph-name="tuichu" unicode="&#59488;" d="M896 768H480v-196h64V704h288v-640h-288v132h-64V0h416V768zM349.248 605.248L128 384l221.248-221.248 45.248 45.248-144 144H704v64H250.496l144 144-45.248 45.248z"  horiz-adv-x="1024" />

    
    <glyph glyph-name="suolvetu" unicode="&#59489;" d="M192 704h288v-288H192V704z m64-64v-160h160V640H256zM544 704h288v-288h-288V704z m64-64v-160h160V640h-160zM192 352h288v-288H192v288z m64-64v-160h160v160H256zM544 352h288v-288h-288v288z m64-64v-160h160v160h-160z"  horiz-adv-x="1024" />

    
    <glyph glyph-name="tishiyiweni" unicode="&#59490;" d="M512-32c229.76 0 416 186.24 416 416S741.76 800 512 800 96 613.76 96 384s186.24-416 416-416z m0 768c194.4 0 352-157.6 352-352s-157.6-352-352-352S160 189.6 160 384 317.6 736 512 736zM560 592a48 48 0 1 0-96 0 48 48 0 0 0 96 0zM544 480v-213.504c0-29.504 1.664-49.216 5.024-59.2 3.616-9.6 8.768-16.768 15.456-21.568 6.976-4.8 25.408-7.2 43.52-7.2V160h-192v18.528c18.688 0 37.088 2.24 43.52 6.688 6.4 4.448 11.424 11.84 15.04 22.08 3.904 10.304 5.856 30.048 5.856 59.2v17.888c0 51.104-1.28 84.16-3.776 99.264-1.92 10.976-4.992 18.528-9.184 22.656-4.16 4.448-9.92 6.688-17.152 6.688-7.808 0-17.28-2.56-28.448-7.744l-5.856 18.56L528 480h16z"  horiz-adv-x="1024" />

    
    <glyph glyph-name="suoxiao" unicode="&#59491;" d="M320 416v64h256v-64h-256zM448 192a254.88 254.88 0 0 1 156.992 53.76l181.76-181.76L832 109.248l-181.76 181.76A256 256 0 1 1 448 192z m0 448a192 192 0 1 0 0-384 192 192 0 0 0 0 384z"  horiz-adv-x="1024" />

    
    <glyph glyph-name="wendangjinggao" unicode="&#59492;" d="M832 768H192v-736h208v64H256V704h512v-256h64V768zM320 544h384V608H320v-64zM320 416h160v64h-160v-64zM672 224v96h-64v-96h64zM608 192v-64h64v64h-64zM864 224a224 224 0 1 0-448 0 224 224 0 0 0 448 0z m-64 0a160 160 0 1 1-320 0 160 160 0 0 1 320 0z"  horiz-adv-x="1024" />

    
    <glyph glyph-name="shuju4" unicode="&#59493;" d="M854.624 553.376L928 480l32 224-224-32 73.376-73.376L544 333.248l-128 128L73.376 118.624l45.248-45.248L416 370.752l128-128 310.624 310.624z"  horiz-adv-x="1024" />

    
    <glyph glyph-name="renpao" unicode="&#59494;" d="M647.008 736a98.496 98.496 0 0 1-98.016-98.016 98.496 98.496 0 0 1 98.016-97.984c53.856 0 98.976 44.256 98.976 98.016 0 53.76-45.12 97.984-98.976 97.984z m0-64c19.232 0 34.976-14.88 34.976-34.016 0-19.104-15.744-33.984-34.976-33.984-19.136 0-34.016 14.72-34.016 34.016A33.6 33.6 0 0 0 647.008 672z m-233.024-64a69.12 69.12 0 0 1-41.984-20.992L264 470.016l48-44.032 107.008 117.024c1.12 1.12 2.624 1.856 4 0.992l51.008-34.016-75.008-104a83.296 83.296 0 0 1 8.992-106.976l112.992-113.024L428 0h72l79.008 156.992a64.032 64.032 0 0 1-12 74.016l-113.024 112.992a19.84 19.84 0 0 0-1.984 24.992l75.008 105.024 25.984-17.024 51.008-76.992c11.872-17.76 31.616-28 52.992-28H800v64h-143.008l-53.984 82.016-4 4.992-5.024 4-134.976 89.984A66.496 66.496 0 0 1 414.016 608h-0.032z m-27.968-336.992L338.944 224H192v-64h147.008c16.864 0 32.992 6.88 44.992 19.008l47.008 46.976-44.992 45.024z"  horiz-adv-x="1024" />

    
    <glyph glyph-name="wancheng" unicode="&#59495;" d="M749.248 513.28l-286.272-302.816-156.224 151.52 44.544 45.92 109.696-106.368 241.728 255.68 46.528-43.936zM928 384c0-229.76-186.24-416-416-416S96 154.24 96 384 282.24 800 512 800s416-186.24 416-416z m-64 0c0 194.4-157.6 352-352 352S160 578.4 160 384s157.6-352 352-352 352 157.6 352 352z"  horiz-adv-x="1024" />

    
    </font>
</defs>
</svg>
