<?xml version="1.0" encoding="utf-8"?>
<!-- Generator: Adobe Illustrator 16.0.0, SVG Export Plug-In . SVG Version: 6.00 Build 0)  -->
<!DOCTYPE svg PUBLIC "-//W3C//DTD SVG 1.1//EN" "http://www.w3.org/Graphics/SVG/1.1/DTD/svg11.dtd">
<svg version="1.1" id="图层_1" xmlns="http://www.w3.org/2000/svg" xmlns:xlink="http://www.w3.org/1999/xlink" x="0px" y="0px"
	 width="30px" height="540px" viewBox="0 0 30 540" enable-background="new 0 0 30 540" xml:space="preserve">
<g>
	<g>
		<path fill="#FFFFFF" d="M25.978,103.39l-11.142-9.67c-2.508-2.083-5.999-2.571-8.967-1.164c-2.97,1.377-4.684,4.469-4.499,7.651
			c0.123,2.081,1.223,4.07,2.815,5.447l11.142,9.673c3.367,2.878,8.447,2.571,11.446-0.795l0.095-0.124
			C29.652,111.166,29.252,106.174,25.978,103.39z M7.552,97.024c-0.671,0.396-1.469,0.092-1.897-0.491l0,0
			c-0.305-0.704-0.092-1.499,0.49-1.897c2.327-1.103,5.081-0.703,6.886,1.103L16,98.31l0,0c0.521,0.488,0.611,1.286,0.121,1.897
			c-0.211,0.183-0.396,0.305-0.701,0.399c-0.399,0.092-0.887,0-1.194-0.307l-3-2.602C10.339,96.841,8.836,96.533,7.552,97.024z
			 M25.978,110.371c-0.428,1.865-1.714,3.366-3.61,3.978c-1.776,0.58-3.856,0.183-5.264-1.103l0,0l-4.469-3.886l-0.125-0.095
			c-0.582-0.609-0.582-1.498,0-2.081l4.99-5.568c0,0,0,0,0.091-0.125c0.614-0.612,1.593-0.673,2.204-0.092l4.469,3.766
			C25.673,106.573,26.285,108.47,25.978,110.371z"/>
		<path fill="#FFFFFF" d="M24.08,12.729c1.103,0,1.896-0.89,1.896-1.897c0-0.982-0.918-1.868-1.896-1.868h-5.691l5.385-5.358
			c0.98-0.795,1.102-2.113,0.398-3.121C23.16-0.31,21.875-0.097,21.08,0.913l-5.754,5.754l-0.211,0.184l-0.187-0.184L9.053,0.913
			C8.258-0.098,6.881-0.311,5.87,0.484C5.075,1.492,5.288,2.81,6.144,3.605l5.51,5.449H5.961c-1.103,0-1.897,0.919-1.897,1.897
			c0,0.979,0.916,1.897,1.897,1.897h7.069v5.143H5.961c-1.103,0-1.897,0.919-1.897,1.897c0,1.011,0.916,1.897,1.897,1.897h7.069
			v5.388c0,1.103,0.89,1.897,1.898,1.897c0.981,0,1.868-0.919,1.868-1.897v-5.388h7.101c1.07,0,1.869-0.887,1.869-1.897
			c0-0.979-0.892-1.897-1.869-1.897h-7.101v-5.143L24.08,12.729L24.08,12.729z"/>
		<g>
			<path fill="#FFFFFF" d="M19.184,32.134l8.079,8.08c2.269,2.264,2.269,6.059,0,8.326l-8.079,8.081
				c-2.264,2.267-6.061,2.267-8.325,0l-8.08-8.081c-2.266-2.267-2.266-6.062,0-8.326l8.08-8.08
				C13.246,29.867,16.795,29.867,19.184,32.134L19.184,32.134z M13.123,42.478H7.155v3.981h5.875v5.875h3.981v-5.875h5.874v-3.981
				h-5.874v-5.875h-3.98L13.123,42.478L13.123,42.478z"/>
		</g>
		<g>
			<path fill="#FFFFFF" d="M11.134,72.446H19c0.613,0,1.104-0.583,1.104-1.103c0-0.582-0.611-1.073-1.104-1.073h-7.866
				c-0.583,0-1.07,0.582-1.07,1.073C9.938,71.864,10.551,72.446,11.134,72.446z"/>
			<path fill="#FFFFFF" d="M11.134,76.333H19c0.613,0,1.104-0.612,1.104-1.103S19.492,74.127,19,74.127h-7.866
				c-0.583,0-1.07,0.612-1.07,1.103S10.551,76.333,11.134,76.333z"/>
			<path fill="#FFFFFF" d="M20.103,79.087c0-0.582-0.61-1.073-1.103-1.073h-7.867c-0.583,0-1.07,0.583-1.07,1.073
				c0,0.52,0.58,1.103,1.07,1.103H19C19.492,80.189,20.103,79.699,20.103,79.087z"/>
			<path fill="#FFFFFF" d="M28.367,84.965h-0.431V71.252c0-0.615-0.581-1.103-1.069-1.103h-3.582V68.16
				c0-1.073-0.918-1.868-1.896-1.868h-5.084v-0.798h0.399c0.611,0,1.103-0.612,1.103-1.1c0-0.703-0.582-1.102-1.103-1.102h-0.399
				v-0.399c0-0.612-0.579-1.102-1.099-1.102c-0.583,0-1.103,0.582-1.103,1.102v0.399h-0.37c-0.611,0-1.099,0.488-1.099,1.102
				c0,0.579,0.611,1.1,1.099,1.1h0.37v0.798H8.746c-1.07,0-1.865,0.857-1.865,1.868v5.081H3.266c-0.581,0-1.101,0.582-1.101,1.07
				v10.56H1.676c-0.583,0-1.103,0.582-1.103,1.102c0,0.491,0.612,1.073,1.103,1.073h26.568c0.611,0,1.101-0.582,1.101-1.073
				C29.345,85.453,28.856,84.965,28.367,84.965z M6.881,75.538v9.427H4.493v-9.427H6.881z M16.214,84.167v0.798h-2.385v-0.798
				H16.214z M17.408,81.904h-4.682c-0.582,0-1.072,0.58-1.072,1.1v1.962h-2.51V68.557h11.752v16.53H18.51v-2.022
				C18.51,82.395,17.898,81.904,17.408,81.904z M25.55,72.446v12.519h-2.39V72.446H25.55z"/>
		</g>
		<g>
			<path fill="#FFFFFF" d="M7.369,134.735L7.369,134.735c0.582,0,1.103-0.49,1.103-1.105c0-0.609-0.521-1.099-1.103-1.099
				c-1.011,0-1.806-1.165-1.806-2.571c0-1.41,0.795-2.571,1.806-2.571c0.582,0,1.103-0.521,1.103-1.103
				c0-0.611-0.521-1.102-1.103-1.102c-1.103,0-2.202,0.491-2.876,1.469c-0.736,0.919-1.102,2.021-1.102,3.182
				c0,1.224,0.366,2.389,1.102,3.186c0,0,0,0,0.059,0.122c-0.67,0.398-1.286,0.978-1.866,1.592
				c-1.192,1.466-1.806,3.488-1.806,5.447c0,0.612,0.491,1.103,1.102,1.103c0.612,0,1.101-0.491,1.101-1.103
				c0-1.592,0.491-3.062,1.41-4.164C5.075,135.344,6.144,134.735,7.369,134.735C7.247,134.735,7.369,134.735,7.369,134.735z"/>
			<path fill="#FFFFFF" d="M27.447,135.04c-0.486-0.704-1.162-1.224-1.896-1.592c0,0,0,0,0.123-0.122
				c0.672-0.886,1.1-1.96,1.1-3.183c0-1.165-0.428-2.389-1.1-3.184c-0.706-0.89-1.776-1.469-2.879-1.469
				c-0.61,0-1.104,0.492-1.104,1.07c0,0.612,0.492,1.103,1.104,1.103c0.979,0,1.777,1.194,1.777,2.601
				c0,1.38-0.799,2.571-1.777,2.571c-0.61,0-1.104,0.491-1.104,1.103c0,0.611,0.492,1.102,1.104,1.102l0,0
				c1.103,0,2.173,0.582,2.972,1.594c0.886,1.098,1.376,2.571,1.376,4.161c0,0.611,0.521,1.102,1.104,1.102
				c0.611,0,1.101-0.491,1.101-1.102C29.252,138.406,28.673,136.416,27.447,135.04z"/>
			<path fill="#FFFFFF" d="M19,133.143c1.195-1.103,1.988-2.693,1.988-4.378c0-3.182-2.601-5.878-5.875-5.878
				c-3.186,0-5.849,2.603-5.849,5.878c0,1.806,0.798,3.399,1.959,4.378c-1.161,0.487-2.264,1.193-3.275,2.202
				c-1.867,1.867-2.875,4.347-2.97,7.04v2.512c0,0.579,0.491,1.07,1.103,1.07h17.877c0.611,0,1.1-0.491,1.1-1.07v-2.512
				c0-2.693-1.1-5.173-2.969-7.04C21.295,134.336,20.195,133.629,19,133.143z M15.205,125.063c2.02,0,3.705,1.714,3.705,3.702
				c0,1.989-1.686,3.674-3.705,3.674c-1.958,0-3.672-1.685-3.672-3.674C11.533,126.652,13.246,125.063,15.205,125.063z
				 M23.102,143.794H7.369v-1.41c0-4.375,3.552-7.835,7.836-7.835c4.408,0,7.896,3.461,7.896,7.835V143.794z"/>
		</g>
		<g>
			<path fill="#FFFFFF" d="M25.06,174.125H5.075c-0.889,0-1.684,0.799-1.684,1.685c0,0.919,0.795,1.714,1.684,1.714h20.108
				c0.888,0,1.685-0.795,1.685-1.714C26.772,174.924,26.07,174.125,25.06,174.125z"/>
			<path fill="#FFFFFF" d="M5.349,173.33h19.526v-10.131c0-2.509-0.979-4.772-2.875-6.487c-1.805-1.685-4.285-2.695-6.887-2.695
				c-2.604,0-5.051,1.011-6.856,2.695c-1.9,1.714-2.908,4.1-2.908,6.487V173.33L5.349,173.33z M7.95,163.199
				c0-3.673,3.184-6.67,7.07-6.67c3.891,0,7.071,2.998,7.071,6.67v7.531H7.95V163.199z"/>
			<path fill="#FFFFFF" d="M15.02,153.709c0.706,0,1.285-0.578,1.285-1.282v-1.898c0-0.673-0.579-1.288-1.285-1.288
				c-0.704,0-1.286,0.615-1.286,1.288v1.898C13.733,153.13,14.315,153.709,15.02,153.709z"/>
			<path fill="#FFFFFF" d="M5.288,156.528c0.183,0.184,0.491,0.305,0.856,0.305c0.429,0,0.795-0.216,1.011-0.521
				c0.521-0.582,0.396-1.376-0.215-1.867l-1.59-1.224c-0.183-0.184-0.49-0.308-0.857-0.308c-0.428,0-0.798,0.217-1.011,0.52
				c-0.52,0.583-0.399,1.38,0.212,1.9L5.288,156.528z"/>
			<path fill="#FFFFFF" d="M24.08,156.833c0.308,0,0.61-0.121,0.795-0.305l1.593-1.194c0.491-0.52,0.612-1.317,0.093-1.9
				c-0.275-0.303-0.583-0.52-1.011-0.52c-0.275,0-0.583,0.125-0.796,0.308l-1.594,1.224c-0.486,0.491-0.578,1.286-0.06,1.867
				C23.377,156.617,23.682,156.833,24.08,156.833z"/>
			<path fill="#FFFFFF" d="M15.511,162.712c-0.091-0.125-0.306-0.217-0.306-0.308l2.02-3.183c0.092-0.308-0.305-0.49-0.52-0.308
				l-4.87,3.582c-0.121,0.092-0.182,0.275,0,0.399l3.092,2.571c0.091,0.122,0.091,0.213,0,0.305l-2.909,3.49
				c-0.184,0.184,0.125,0.491,0.432,0.397l5.875-3.579c0.184-0.125,0.184-0.308,0.063-0.399L15.511,162.712z"/>
		</g>
		<g>
			<path fill="#FFFFFF" d="M26.561,186.768L26.561,186.768c-0.093-0.182-0.216-0.182-0.216-0.307l-6.365-6.366
				c-0.06-0.091-0.185-0.091-0.185-0.184c0,0-0.092,0-0.092-0.125c-0.092-0.087-0.213-0.087-0.308-0.087H6.452
				c-1.164,0-2.083,1.007-2.083,2.11v24.671c0,1.163,0.981,2.081,2.083,2.081h18.121c1.193,0,2.08-0.981,2.08-2.081v-19.405
				C26.652,186.952,26.652,186.86,26.561,186.768z M24.572,206.481H6.452v-24.489h11.753v5.267c0,0.612,0.487,1.1,1.1,1.1h5.268
				V206.481z"/>
			<path fill="#FFFFFF" d="M10.43,193.134l1.898,1.103c0.183,0.091,0.398,0.184,0.491,0.184c0.212,0,0.428-0.092,0.487-0.184
				l1.899-1.103c1.5-0.886,2.386-2.571,2.386-4.286c0-1.286-0.796-2.571-1.956-2.967c-0.919-0.399-1.901-0.307-2.816,0.184
				c-0.89-0.49-1.777-0.49-2.755-0.184c-1.227,0.488-2.022,1.681-2.022,2.967C8.042,190.563,8.96,192.153,10.43,193.134z
				 M10.858,187.747c0.062-0.091,0.183-0.091,0.366-0.091c0.216,0,0.491,0.091,0.704,0.307c0.399,0.396,1.102,0.396,1.501,0
				c0.49-0.49,1.102-0.307,1.194-0.307c0.212,0.091,0.703,0.307,0.703,1.102c0,1.011-0.491,1.898-1.407,2.48l-1.194,0.916
				l-1.286-0.795c-0.89-0.487-1.377-1.406-1.377-2.509C10.122,188.054,10.738,187.871,10.858,187.747z"/>
			<path fill="#FFFFFF" d="M9.144,198.522h8.571c0.611,0,1.102-0.49,1.102-1.103c0-0.611-0.49-1.102-1.102-1.102H9.144
				c-0.612,0-1.103,0.49-1.103,1.102C8.042,198.032,8.533,198.522,9.144,198.522z"/>
			<path fill="#FFFFFF" d="M8.042,201.705c0,0.583,0.491,1.103,1.103,1.103h12.732c0.611,0,1.103-0.52,1.103-1.103
				c0-0.611-0.491-1.102-1.103-1.102H9.144C8.533,200.603,8.042,201.094,8.042,201.705z"/>
		</g>
		<g>
			<path fill="#FFFFFF" d="M9.328,282.788c1.593,0,3-0.703,3.795-1.897c-0.795-0.98-1.287-2.172-1.287-3.461
				c0-0.916,0.184-1.715,0.615-2.51c-0.797-0.673-1.9-1.102-3.124-1.102c-2.571,0-4.651,2.021-4.651,4.468
				C4.676,280.799,6.757,282.788,9.328,282.788z"/>
			<path fill="#FFFFFF" d="M19.121,283.001c3.063,0,5.633-2.51,5.633-5.571c0-3.121-2.449-5.566-5.633-5.566
				c-3.121,0-5.691,2.445-5.691,5.566C13.43,280.491,15.91,283.001,19.121,283.001z M19.121,273.941
				c1.959,0,3.553,1.592,3.553,3.488c0,1.867-1.594,3.461-3.553,3.461c-2.019,0-3.611-1.594-3.611-3.461
				C15.511,275.533,17.104,273.941,19.121,273.941z"/>
			<path fill="#FFFFFF" d="M7.155,292.428v0.613c0-3.795,2.602-6.979,6.275-8.266c-1.102-0.489-2.296-0.795-3.491-0.795H8.96
				c-4.285,0-7.868,3.185-7.868,7.07v-0.521c0,2.113-0.214,3.705,2.081,3.705h3.981C7.155,293.714,7.155,293.041,7.155,292.428z"/>
			<path fill="#FFFFFF" d="M27.447,291.326l-2.572-2.264c-0.303-0.184-0.702,0-0.702,0.308v1.468h-3.457v1.499h3.457v1.595
				c0,0.305,0.399,0.52,0.702,0.305l2.572-2.295C27.662,291.758,27.662,291.45,27.447,291.326z"/>
			<path fill="#FFFFFF" d="M25.06,295.245H11.929c-0.275,0-0.396,0-0.488-0.122c0-0.091-0.091-0.186-0.091-0.49
				c0-0.396,0-0.919,0-1.497l0,0c0-1.81,0.67-3.399,2.081-4.685c0.674-0.583,1.406-1.104,2.296-1.378
				c0.887-0.398,1.773-0.521,2.784-0.521h1.194l0,0c1.011,0,1.867,0.214,2.783,0.521c0.397,0.213,0.797,0.397,1.193,0.581
				c0.398,0.306,0.891,0.214,1.285-0.094l0,0c0.521-0.487,0.398-1.283-0.213-1.682c-1.469-0.92-3.184-1.41-5.051-1.41H18.51
				c-5.08,0-9.244,3.981-9.244,8.754v-0.578c0,2.479-0.213,4.56,2.45,4.56h13.559c0.582,0,1.011-0.49,1.011-0.978
				C26.07,295.736,25.673,295.245,25.06,295.245z"/>
		</g>
		<g>
			<path fill="#FFFFFF" d="M9.328,252.761c1.593,0,3-0.735,3.795-1.897c-0.795-1.012-1.287-2.203-1.287-3.489
				c0-0.917,0.184-1.714,0.615-2.509c-0.797-0.676-1.9-1.104-3.124-1.104c-2.571,0-4.651,2.022-4.651,4.499
				C4.676,250.742,6.757,252.761,9.328,252.761z"/>
			<path fill="#FFFFFF" d="M19.121,252.943c3.063,0,5.633-2.51,5.633-5.57c0-3.092-2.449-5.57-5.633-5.57
				c-3.121,0-5.691,2.479-5.691,5.57C13.43,250.436,15.91,252.943,19.121,252.943z M19.121,243.886c1.959,0,3.553,1.591,3.553,3.487
				s-1.594,3.488-3.553,3.488c-2.019,0-3.611-1.592-3.611-3.488S17.104,243.886,19.121,243.886z"/>
			<path fill="#FFFFFF" d="M7.155,262.372v0.61c0-3.795,2.602-6.978,6.275-8.263c-1.102-0.491-2.296-0.799-3.491-0.799H8.96
				c-4.285,0-7.868,3.187-7.868,7.072v-0.49c0,2.084-0.214,3.674,2.081,3.674h3.981C7.155,263.777,7.155,263.107,7.155,262.372z"/>
			<path fill="#FFFFFF" d="M22.886,260.902V259.4c0-0.273-0.397-0.487-0.702-0.273l-2.57,2.268c-0.217,0.184-0.217,0.396,0,0.611
				l2.57,2.264c0.305,0.215,0.702,0,0.702-0.306v-1.592h3.459v-1.47H22.886z"/>
			<path fill="#FFFFFF" d="M25.06,265.279H11.929c-0.275,0-0.396,0-0.488-0.092c0-0.125-0.091-0.215-0.091-0.49
				c0-0.43,0-0.92,0-1.53l0,0c0-1.772,0.67-3.366,2.081-4.651c0.674-0.613,1.406-1.104,2.296-1.408
				c0.887-0.368,1.773-0.489,2.784-0.489h1.194l0,0c1.011,0,1.867,0.184,2.783,0.489c0.397,0.215,0.797,0.427,1.193,0.613
				c0.398,0.305,0.891,0.182,1.285-0.125l0,0c0.521-0.488,0.398-1.285-0.213-1.652c-1.469-0.918-3.184-1.405-5.051-1.405H18.51
				c-5.08,0-9.244,3.979-9.244,8.754v-0.614c0,2.512-0.213,4.592,2.45,4.592h13.559c0.582,0,1.011-0.49,1.011-0.979
				C26.07,265.68,25.673,265.279,25.06,265.279z"/>
		</g>
		<g>
			<path fill="#FFFFFF" d="M28.457,314.039c-0.399-0.795-1.103-1.407-1.807-1.807c-0.795-0.396-1.592-0.703-2.479-0.703H13.031
				c-0.212,0-0.396,0.121-0.52,0.214c-0.059,0.093-0.183,0.307-0.183,0.489v6.273H3.881v-10.529c0-0.213-0.125-0.426-0.187-0.521
				c-0.121-0.093-0.304-0.213-0.52-0.213H1.799c-0.214,0-0.428,0.12-0.49,0.213c-0.123,0.095-0.215,0.308-0.215,0.521v15.428
				c0,0.183,0.092,0.367,0.215,0.49c0.062,0.092,0.276,0.184,0.49,0.184h1.375c0.216,0,0.399-0.092,0.52-0.184
				c0.063-0.123,0.187-0.309,0.187-0.49v-2.109h22.464v2.109c0,0.183,0.123,0.367,0.216,0.49c0.092,0.092,0.307,0.184,0.52,0.184
				h1.377c0.217,0,0.399-0.092,0.49-0.184c0.094-0.123,0.215-0.309,0.215-0.49v-6.979C29.162,315.508,28.947,314.713,28.457,314.039
				z M26.867,318.507H14.835v-4.866h9.245c1.593,0,2.787,1.289,2.787,2.786V318.507L26.867,318.507z"/>
			<path fill="#FFFFFF" d="M8.166,317.102c0.795,0,1.377-0.275,1.956-0.795c0.616-0.582,0.798-1.166,0.798-1.961
				c0-0.797-0.277-1.41-0.798-2.021c-0.579-0.581-1.161-0.796-1.956-0.796c-0.798,0-1.41,0.308-2.022,0.796
				c-0.582,0.61-0.795,1.225-0.795,2.021c0,0.795,0.305,1.379,0.795,1.961C6.665,316.825,7.369,317.102,8.166,317.102z"/>
			<path fill="#FFFFFF" d="M7.063,305.867h5.571l1.194,2.388c0.091,0.306,0.275,0.396,0.579,0.396c0.307,0,0.52-0.09,0.611-0.396
				l2.205-4.377l0.979,1.897h5.386c0.184,0,0.37-0.125,0.489-0.184c0.092-0.125,0.185-0.309,0.185-0.523
				c0-0.213-0.093-0.396-0.185-0.486c-0.119-0.094-0.307-0.217-0.489-0.217h-4.468l-1.224-2.389
				c-0.092-0.305-0.308-0.365-0.582-0.365c-0.305,0-0.521,0.062-0.61,0.365l-2.173,4.41l-0.918-1.806
				c-0.092-0.093-0.184-0.218-0.308-0.218H7.063c-0.124,0-0.183,0-0.183,0.125c-0.124,0.093-0.124,0.184-0.124,0.184v0.704
				c0,0.091,0,0.216,0.124,0.216C6.881,305.867,6.939,305.867,7.063,305.867z"/>
		</g>
		<g>
			<path fill="#FFFFFF" d="M26.468,363.38H3.574c-1.408,0-2.571,1.103-2.571,2.509v14.325c0,1.377,1.102,2.479,2.571,2.479h22.895
				c1.406,0,2.572-1.104,2.572-2.479v-14.325C29.039,364.573,27.875,363.38,26.468,363.38z M26.772,365.951v1.715
				c-0.12,0-0.212-0.122-0.305-0.122H3.481c-0.091,0-0.216,0-0.216,0v-1.655h23.507V365.951z M25.856,380.214H3.972
				c-0.398,0-0.798-0.61-0.798-1.405v-4.869h9.765v-2.201H3.174v-1.686h23.599v8.756C26.772,379.604,26.345,380.214,25.856,380.214z
				"/>
			<polygon fill="#FFFFFF" points="23.773,373.113 23.773,371.738 22.184,371.738 22.184,373.113 20.715,373.113 20.715,374.734 
				22.184,374.734 22.184,376.234 23.773,376.234 23.773,374.734 25.274,374.734 25.274,373.113 			"/>
		</g>
		<g>
			<path fill="#FFFFFF" d="M25.367,419.883H4.676c-1.286,0-2.388,1.104-2.388,2.387v22.408c0,1.283,1.103,2.389,2.388,2.389h20.813
				c1.284,0,2.387-1.104,2.387-2.389V422.27C27.754,420.986,26.772,419.883,25.367,419.883z M25.55,443.88
				c0,0.491-0.367,0.982-0.979,0.982h-19.1c-0.491,0-0.979-0.368-0.979-0.982v-20.812c0-0.491,0.367-0.982,0.979-0.982h19.102
				c0.487,0,0.979,0.399,0.979,0.982L25.55,443.88L25.55,443.88z"/>
			<path fill="#FFFFFF" d="M7.369,430.445c-0.488,0-0.917,0.396-0.917,0.886c0,0.491,0.429,0.92,0.917,0.92h2.175v1.285
				c0,0.49,0.396,0.887,0.886,0.887c0.49,0,0.919-0.396,0.919-0.887v-1.285h2.172c0.52,0,0.887-0.429,0.887-0.92
				c0-0.49-0.367-0.886-0.887-0.886h-2.172v-1.073h2.172c0.52,0,0.887-0.43,0.887-0.92c0-0.487-0.367-0.886-0.887-0.886h-1.377
				l1.469-1.499c0.428-0.308,0.491-0.89,0.121-1.409c-0.213-0.06-0.429-0.185-0.611-0.185c-0.304,0-0.612,0.125-0.671,0.308
				l-1.9,1.897l-2.019-1.714c-0.183-0.185-0.491-0.366-0.673-0.366c-0.183,0-0.399,0.06-0.612,0.183
				c-0.307,0.396-0.307,0.979,0.122,1.286l1.469,1.499h-1.47c-0.488,0-0.917,0.397-0.917,0.886c0,0.49,0.429,0.92,0.917,0.92h2.175
				v1.073H7.369L7.369,430.445z"/>
			<path fill="#FFFFFF" d="M19.92,427.965h2.566c0.614,0,1.104-0.49,1.104-1.103c0-0.611-0.488-1.103-1.104-1.103H19.92
				c-0.615,0-1.104,0.49-1.104,1.103C18.816,427.475,19.305,427.965,19.92,427.965z"/>
			<path fill="#FFFFFF" d="M17.807,433.412h4.682c0.613,0,1.103-0.491,1.103-1.07c0-0.582-0.488-1.102-1.103-1.102h-4.772
				c-0.611,0-1.104,0.52-1.104,1.102C16.611,432.921,17.104,433.412,17.807,433.412z"/>
			<path fill="#FFFFFF" d="M23.102,438.004H6.665c-0.703,0-1.194,0.492-1.194,1.194c0,0.704,0.491,1.193,1.194,1.193h16.437
				c0.672,0,1.162-0.489,1.162-1.193C24.264,438.496,23.773,438.004,23.102,438.004z"/>
		</g>
		<g>
			<path fill="#FFFFFF" d="M25.367,389.063H5.779c-1.714,0-2.388,0.703-2.388,2.386v23.479c0,0.796,0.304,1.593,0.886,2.202
				c0.583,0.582,1.286,0.891,2.175,0.891h0.429l4.253-2.693l2.908,2.172c0.275,0.305,0.795,0.429,1.166,0.429
				c0.305,0,0.705-0.124,1.008-0.307l3.98-2.39l4.377,2.789h0.396c0.799,0,1.594-0.309,2.175-0.891
				c0.613-0.609,0.916-1.406,0.916-2.202v-23.386C27.754,389.857,27.08,389.063,25.367,389.063z M25.274,415.047
				c0,0.184-0.092,0.366-0.308,0.491l-3.979-2.511c-0.273-0.186-0.703-0.308-1.01-0.308c-0.275,0-0.675,0.122-0.979,0.308
				l-3.98,2.386l-2.875-2.173c-0.308-0.303-0.795-0.397-1.224-0.397c-0.37,0-0.674,0.095-0.981,0.308l-3.978,2.479
				c-0.183-0.091-0.308-0.305-0.308-0.52v-23.389H25.06v23.325L25.274,415.047L25.274,415.047z"/>
			<path fill="#FFFFFF" d="M20.103,401.578c0.675,0,1.286-0.581,1.286-1.285c0-0.673-0.611-1.285-1.286-1.285H18.02l2.176-2.201
				c0.582-0.49,0.701-1.379,0.211-1.959c-0.304-0.217-0.609-0.309-0.914-0.309c-0.371,0-0.799,0.188-1.104,0.49l-2.754,2.787
				l-2.816-2.787c-0.308-0.305-0.674-0.49-1.103-0.49c-0.275,0-0.582,0.092-0.857,0.369c-0.52,0.611-0.429,1.527,0.183,2.019
				l2.205,2.173h-2.113c-0.704,0-1.286,0.582-1.286,1.317c0,0.675,0.583,1.286,1.286,1.286h3.275v1.959h-3.275
				c-0.704,0-1.286,0.611-1.286,1.314c0,0.705,0.583,1.287,1.286,1.287h3.275v2.6c0,0.675,0.611,1.285,1.317,1.285
				c0.704,0,1.286-0.61,1.286-1.285v-2.6h3.273c0.703,0,1.285-0.582,1.285-1.287c0-0.703-0.582-1.314-1.285-1.314h-3.273v-1.959
				h3.091V401.578z"/>
		</g>
		<g>
			<path fill="#FFFFFF" d="M3.174,475.929h-1.59c-0.582,0-1.011,0.49-1.011,1.012c0,0.487,0.429,0.979,1.011,0.979h1.682
				c0.491,0,1.011-0.49,1.011-0.979C4.185,476.324,3.694,475.929,3.174,475.929z"/>
			<path fill="#FFFFFF" d="M3.174,474.428h0.217c3.183,0,6.245-1.286,8.539-3.582l0.307-0.305c1.685-1.685,1.685-4.376,0-6.153
				l-0.091-0.121c-0.215-0.091-0.308-0.091-0.611-0.091c-0.308,0-0.492,0.091-0.674,0.304l-8.265,8.358
				c-0.306,0.304-0.306,0.703-0.214,0.979C2.471,474.244,2.898,474.428,3.174,474.428z M10.858,469.256l-0.308,0.308
				c-1.285,1.282-2.875,2.173-4.772,2.659l3.673-3.671l1.989-1.896c0.092,0.305,0.213,0.61,0.213,0.916
				C11.533,468.152,11.349,468.856,10.858,469.256z"/>
			<path fill="#FFFFFF" d="M29.162,452.543l-1.012-1.683c-0.396-0.614-1.07-1.012-1.865-1.012c-0.611,0-1.103,0.215-1.529,0.583
				l-11.235,11.355c-0.398,0.398-0.582,0.887-0.582,1.498c0,0.615,0.184,1.103,0.582,1.472c0.399,0.426,0.887,0.613,1.499,0.613
				c0.398,0,0.797-0.093,1.285-0.399l12.245-9.55C29.468,454.715,29.652,453.554,29.162,452.543z M15.02,463.47
				c-0.091,0-0.091,0-0.184-0.089c-0.121-0.096-0.121-0.216,0-0.279l11.233-11.263c0,0,0.092,0,0.217,0c0.06,0,0.06,0,0.183,0.121
				l0.979,1.655c0.125,0.213,0,0.213-0.092,0.305l-12.24,9.55C15.115,463.47,15.115,463.47,15.02,463.47z"/>
			<path fill="#FFFFFF" d="M8.258,475.929H6.574c-0.612,0-1.011,0.49-1.011,1.012c0,0.487,0.399,0.979,1.011,0.979h1.684
				c0.488,0,1.008-0.49,1.008-0.979C9.266,476.324,8.746,475.929,8.258,475.929z"/>
			<path fill="#FFFFFF" d="M26.652,475.929h-5.08c-0.582,0-0.981,0.396-0.981,1.012c0,0.578,0.399,0.979,0.981,0.979h5.08
				c0.61,0,1.01-0.399,1.01-0.979C27.662,476.203,27.142,475.929,26.652,475.929z"/>
			<path fill="#FFFFFF" d="M18.326,475.929h-1.715c-0.611,0-0.977,0.396-0.977,1.012c0,0.578,0.365,0.979,0.977,0.979h1.715
				c0.584,0,0.979-0.399,0.979-0.979C19.305,476.203,18.816,475.929,18.326,475.929z"/>
			<path fill="#FFFFFF" d="M13.306,475.929h-1.651c-0.613,0-1.011,0.49-1.011,1.012c0,0.487,0.398,0.979,1.011,0.979h1.651
				c0.524,0,1.011-0.49,1.011-0.979C14.225,476.324,13.733,475.929,13.306,475.929z"/>
		</g>
		<g>
			<path fill="#FFFFFF" d="M23.377,346.791h-1.072c-0.732,0-1.408,0.063-2.109,0.367c-0.582,0.305-1.195,0.701-1.686,1.223
				c-0.49,0.49-0.919,1.073-1.193,1.652c-0.305,0.736-0.396,1.41-0.396,2.111c0,0.707,0.093,1.379,0.396,2.086
				c0.274,0.578,0.703,1.189,1.193,1.681s1.104,0.92,1.686,1.224c0.701,0.275,1.377,0.37,2.109,0.37c0.674,0,1.377-0.095,2.083-0.37
				c0.579-0.304,1.162-0.732,1.683-1.224c0.49-0.49,0.891-1.103,1.192-1.681c0.31-0.707,0.399-1.379,0.399-2.086v-1.102h-4.285
				V346.791z M26.07,352.637v0.092c0,0.309-0.093,0.611-0.305,0.92c-0.216,0.486-0.491,0.887-0.799,1.162
				c-0.396,0.307-0.795,0.61-1.193,0.797c-0.488,0.213-0.979,0.305-1.469,0.305c-0.521,0-1.01-0.092-1.527-0.305
				c-0.49-0.187-0.857-0.49-1.164-0.797c-0.43-0.367-0.613-0.795-0.797-1.162c-0.215-0.491-0.307-1.012-0.307-1.502
				c0-0.521,0.092-1.008,0.307-1.498c0.184-0.491,0.488-0.89,0.797-1.193c0.307-0.398,0.793-0.583,1.164-0.799
				c0.303-0.09,0.611-0.213,0.914-0.274v4.257h4.379V352.637z"/>
			<path fill="#FFFFFF" d="M24.754,345.872H24.08v4.593h4.593v-0.706C28.732,347.586,26.959,345.872,24.754,345.872z"/>
			<path fill="#FFFFFF" d="M21.295,330.628c-1.192-0.796-2.479-1.069-3.795-0.979c-1.865,0.123-3.671,1.104-4.774,2.789
				l-4.194,6.578l0,0l-4.651,7.256c-0.798,1.191-1.103,2.479-0.982,3.763c0.063,1.899,1.073,3.798,2.755,4.899l0.125,0.092
				c0,0,0,0,0.091,0c0,0,0,0,0.092,0c0,0,0,0,0.121,0c0,0,0,0,0.062,0c0,0,0,0,0.122,0c0,0,0,0,0.091,0h0.095
				c0.122,0,0.122,0.092,0.213,0.092l0,0h0.092l0,0h0.123l0,0h0.059l0,0c0.124,0,0.215,0.121,0.307,0.121l0,0h0.122l0,0h0.091l0,0
				h0.092l0,0c0.125,0,0.125,0,0.186,0l0,0h0.122c0,0,0,0,0.091,0h0.092h0.125h0.091h0.092h0.12l0,0c0.062,0,0.062,0,0.183,0
				c0,0,0,0,0.092,0h0.091c0,0,0,0,0.124,0h0.091l0,0h0.092l0,0c0.122,0,0.183,0,0.308,0l0,0h0.092l0,0
				c1.897-0.121,3.762-1.104,4.865-2.816l1.011-1.47l7.957-12.364C24.967,336.507,24.172,332.648,21.295,330.628z M12.819,347.158
				l-2.971,4.191c-0.52,0.705-1.59,0.889-2.296,0.396c-0.671-0.487-0.887-1.592-0.396-2.293l2.967-4.194
				c0.521-0.674,1.593-0.89,2.329-0.366C13.246,345.381,13.43,346.482,12.819,347.158z M21.51,338.402l-4.285,6.582l-7.161-4.866
				l4.252-6.582c0.399-0.579,0.89-1.101,1.501-1.378c0.613-0.305,1.195-0.521,1.898-0.611c0.979-0.121,1.896,0.184,2.691,0.674
				c0.981,0.736,1.594,1.594,1.897,2.816C22.367,336.198,22.184,337.425,21.51,338.402z"/>
		</g>
		<g>
			<path fill="#FFFFFF" d="M22.674,226.467H21.57c-0.675,0-1.375,0.095-2.08,0.398c-0.582,0.308-1.164,0.703-1.685,1.193
				c-0.49,0.521-0.888,1.104-1.194,1.685c-0.308,0.704-0.397,1.408-0.397,2.081c0,0.735,0.091,1.407,0.397,2.113
				c0.309,0.58,0.704,1.194,1.194,1.682c0.521,0.49,1.103,0.919,1.685,1.194c0.705,0.307,1.405,0.399,2.08,0.399
				c0.733,0,1.407-0.093,2.11-0.399c0.582-0.275,1.192-0.704,1.685-1.194c0.49-0.487,0.92-1.102,1.194-1.682
				c0.308-0.706,0.399-1.378,0.399-2.113v-1.072h-4.286L22.674,226.467L22.674,226.467z M25.367,232.344v0.093
				c0,0.307-0.093,0.611-0.308,0.918c-0.185,0.488-0.487,0.858-0.796,1.163c-0.367,0.307-0.795,0.614-1.162,0.797
				c-0.52,0.213-1.011,0.305-1.529,0.305c-0.492,0-0.981-0.092-1.47-0.305c-0.489-0.183-0.919-0.49-1.192-0.797
				c-0.399-0.368-0.584-0.796-0.799-1.163c-0.213-0.52-0.305-1.011-0.305-1.53c0-0.49,0.092-0.978,0.305-1.468
				c0.215-0.492,0.49-0.92,0.799-1.194c0.273-0.399,0.795-0.583,1.192-0.799c0.304-0.089,0.612-0.212,0.888-0.305v4.285H25.367z"/>
			<path fill="#FFFFFF" d="M24.08,225.579h-0.703v4.594h4.56v-0.736C28.058,227.264,26.285,225.579,24.08,225.579z"/>
			<g>
				<path fill="#FFFFFF" d="M20.59,210.335c-1.193-0.795-2.479-1.099-3.795-0.979c-1.867,0.092-3.672,1.103-4.775,2.788
					l-4.282,6.578l0,0l-4.655,7.256c-0.795,1.194-1.101,2.479-0.979,3.765c0.061,1.898,1.07,3.795,2.755,4.897l0.121,0.092
					c0,0,0,0,0.094,0c0,0,0,0,0.092,0c0,0,0,0,0.122,0c0,0,0,0,0.062,0c0,0,0,0,0.122,0c0,0,0,0,0.091,0h0.092
					c0.125,0,0.125,0.092,0.215,0.092l0,0h0.092l0,0h0.121l0,0h0.062l0,0c0.122,0,0.213,0.121,0.308,0.121l0,0h0.122l0,0h0.091l0,0
					h0.092l0,0c0.124,0,0.124,0,0.183,0l0,0h0.124c0,0,0,0,0.091,0h0.092H7.37H7.46h0.092h0.125l0,0c0.062,0,0.062,0,0.183,0
					c0,0,0,0,0.091,0h0.092c0,0,0,0,0.125,0H8.26l0,0h0.092l0,0c0.122,0,0.183,0,0.305,0l0,0h0.092l0,0
					c1.897-0.121,3.765-1.103,4.868-2.816l1.011-1.47l7.958-12.364C24.264,216.214,23.469,212.356,20.59,210.335z M9.543,231.242
					c-1.806,0-3.187-1.378-3.187-3.184c0-1.806,1.38-3.183,3.187-3.183c1.806,0,3.183,1.377,3.183,3.183
					C12.726,229.743,11.349,231.242,9.543,231.242z M20.777,218.111l-4.256,6.552l-7.194-4.867l4.286-6.582
					c0.428-0.583,0.918-1.07,1.501-1.378c0.61-0.275,1.189-0.491,1.896-0.582c1.008-0.121,1.896,0.184,2.691,0.674
					c1.012,0.703,1.592,1.592,1.867,2.816C21.691,215.91,21.51,217.132,20.777,218.111z"/>
				<path fill="#FFFFFF" d="M9.543,226.865c0.67,0,1.194,0.553,1.194,1.193c0,0.643-0.524,1.194-1.194,1.194
					c-0.645,0-1.194-0.552-1.194-1.194C8.349,227.418,8.898,226.865,9.543,226.865z"/>
			</g>
		</g>
	</g>
	<g>
		<path fill="#FFFFFF" d="M29.023,523.049c-0.201-0.301-0.604-0.4-0.902-0.4c-0.602,0-1.201,0.5-1.201,1.199v0.303H11.695v-1.801
			c0-0.805-0.301-1.504-0.803-2.205l0,0l0,0c-0.601-0.602-1.302-0.902-2.103-0.902H3.08v-1.502c0-0.604-0.6-1.203-1.201-1.203
			s-1.203,0.502-1.203,1.203v13.422c0,0.602,0.602,1.201,1.203,1.201s1.201-0.5,1.201-1.201v-0.803h14.625
			c0.701,0,1.102-0.6,1.102-1.199c0-0.602-0.502-1.203-1.102-1.203H3.08v-1.201h23.84v1.201h-5.51c-0.703,0-1.104,0.602-1.104,1.203
			c0,0.6,0.502,1.199,1.104,1.199h5.51v0.803c0,0.602,0.6,1.201,1.201,1.201s1.203-0.5,1.203-1.201v-7.012
			C29.324,523.848,29.225,523.248,29.023,523.049z M8.689,521.646c0.201,0,0.399,0.098,0.502,0.199
			c0.098,0.102,0.199,0.301,0.199,0.502v1.699H3.08v-2.502h5.609V521.646z"/>
		<g>
			<path fill="#FFFFFF" d="M7.938,494.648c0.899,0,1.502-0.301,2.104-0.898c0.701-0.602,0.9-1.305,0.9-2.104
				c0-0.902-0.301-1.502-0.9-2.203c-0.602-0.602-1.303-0.902-2.104-0.902c-0.902,0-1.504,0.301-2.205,0.902
				c-0.601,0.699-0.9,1.301-0.9,2.203c0,0.898,0.301,1.502,0.9,2.104C6.235,494.348,7.036,494.648,7.938,494.648z"/>
			<path fill="#FFFFFF" d="M28.272,491.746c-1.101-2.004-3.808-2.805-4.808-2.805H12.944c-0.2,0-0.399,0.1-0.602,0.197
				c-0.1,0.104-0.199,0.303-0.199,0.502v6.109H3.431v-6.809c0-0.703-0.602-1.307-1.301-1.307c-0.701,0-1.305,0.604-1.305,1.307
				v10.916c0,0.703,0.604,1.303,1.305,1.303c0.699,0,1.301-0.6,1.301-1.303v-1.004h22.541v0.805c0,0.902,0.699,1.604,1.601,1.604
				s1.604-0.701,1.604-1.604v-4.107C29.075,494.449,28.774,492.545,28.272,491.746z"/>
		</g>
	</g>
</g>
</svg>
